<?xml version="1.0" encoding="UTF-8" standalone="no"?>
<svg
   fill="none"
   viewBox="0 0 1080 876.67499"
   version="1.1"
   id="svg10"
   sodipodi:docname="rpiseal.svg"
   inkscape:version="1.3 (0e150ed6c4, 2023-07-21)"
   width="1080"
   height="876.67499"
   inkscape:export-filename="rpiseal.png"
   inkscape:export-xdpi="96"
   inkscape:export-ydpi="96"
   xmlns:inkscape="http://www.inkscape.org/namespaces/inkscape"
   xmlns:sodipodi="http://sodipodi.sourceforge.net/DTD/sodipodi-0.dtd"
   xmlns="http://www.w3.org/2000/svg"
   xmlns:svg="http://www.w3.org/2000/svg">
  <defs
     id="defs10" />
  <sodipodi:namedview
     id="namedview10"
     pagecolor="#ffffff"
     bordercolor="#000000"
     borderopacity="0.25"
     inkscape:showpageshadow="2"
     inkscape:pageopacity="0.0"
     inkscape:pagecheckerboard="0"
     inkscape:deskcolor="#d1d1d1"
     inkscape:zoom="1.9204082"
     inkscape:cx="539.46865"
     inkscape:cy="557.69394"
     inkscape:window-width="3840"
     inkscape:window-height="2071"
     inkscape:window-x="-9"
     inkscape:window-y="-9"
     inkscape:window-maximized="1"
     inkscape:current-layer="svg10" />
  <path
     fill="#ffffff"
     d="M 1080,876.675 H 0 Z"
     id="path1"
     sodipodi:nodetypes="ccc" />
  <path
     fill="#000000"
     d="M 681.414,437.247 V 336.334 c 0,-36.783 3.397,-65.975 17.951,-83.716 v -4.362 H 380.479 v 4.362 c 14.595,17.741 17.993,46.933 17.993,83.716 v 100.913 c 0,117.145 119.451,160.723 140.506,173.138 l 0.965,0.461 0.965,-0.461 C 561.963,597.97 681.414,554.392 681.414,437.247 m -139.458,-99.151 67.611,-15.477 67.821,15.519 v 6.333 l -67.821,-15.518 -67.611,15.476 z m 0,16.567 67.611,-15.476 67.821,15.518 v 6.333 l -67.821,-15.518 -67.611,15.477 z m 135.977,-41.439 a 335,335 0 0 0 -0.461,14.68 l -64.256,-14.68 z m -135.977,14.638 v -14.638 h 63.962 z m -95.251,-50.456 c 0,-1.762 0.671,-3.314 1.72,-4.069 0.839,1.678 3.607,3.188 8.137,3.188 h 8.975 l 0.42,-0.42 v -8.975 c 0,-4.488 -1.51,-7.256 -3.188,-8.137 0.755,-1.049 2.265,-1.72 4.069,-1.72 1.342,0 2.558,0.713 3.481,1.762 0.923,-1.049 2.139,-1.762 3.481,-1.762 1.762,0 3.272,0.671 4.068,1.72 -1.677,0.881 -3.187,3.649 -3.187,8.137 v 8.975 l 0.419,0.42 h 8.934 c 4.53,0 7.298,-1.51 8.179,-3.188 1.006,0.755 1.719,2.307 1.719,4.069 0,1.342 -0.713,2.558 -1.803,3.481 1.09,0.923 1.803,2.139 1.803,3.481 0,1.762 -0.713,3.313 -1.719,4.068 -0.881,-1.677 -3.649,-3.187 -8.179,-3.187 H 475.1 l -0.419,0.419 v 8.934 c 0,4.53 1.51,7.298 3.187,8.179 -0.796,1.006 -2.306,1.719 -4.068,1.719 -1.342,0 -2.558,-0.713 -3.481,-1.803 -0.923,1.09 -2.139,1.803 -3.481,1.803 -1.804,0 -3.314,-0.713 -4.069,-1.719 1.678,-0.881 3.188,-3.649 3.188,-8.179 v -8.934 l -0.42,-0.419 h -8.975 c -4.53,0 -7.298,1.51 -8.137,3.187 -1.049,-0.755 -1.72,-2.306 -1.72,-4.068 0,-1.342 0.713,-2.558 1.762,-3.481 -1.049,-0.923 -1.762,-2.139 -1.762,-3.481 m -44.207,92.524 v -33.596 c 0,-7.759 -0.126,-15.518 -0.545,-23.11 H 537.93 v 56.706 z m 207.069,-14.176 61.907,14.176 H 547.618 l 61.907,-14.176 z m 68.617,-46.556 H 541.956 v -25.124 h 18.329 v 6.25 h 19.545 v -6.25 h 19.545 v 6.25 h 19.545 v -6.25 h 19.545 v 6.25 h 19.545 v -6.25 h 23.362 c -1.678,7.928 -2.684,16.4 -3.271,25.124 z m -20.09,-43.83 v 6.208 h -19.545 v -6.208 h -19.545 v 6.208 h -19.545 v -6.208 h -19.545 v 6.208 h -19.545 v -6.208 H 542.04 v -13.044 h 152.586 c -2.936,3.943 -5.369,8.305 -7.34,13.044 z M 550.135,601.074 c -4.194,2.097 -7.676,3.817 -10.192,5.201 -2.517,-1.384 -5.998,-3.104 -10.192,-5.201 -10.402,-5.117 -26.172,-12.918 -43.033,-23.949 V 373.957 h 106.45 v 203.168 c -16.861,11.031 -32.631,18.832 -43.033,23.949 m -11.871,111.734 -0.545,34.015 c 0,0 0.336,0.336 0.503,0.545 h 3.314 c 0,0 0.335,-0.293 0.545,-0.503 V 712.85 c 0,0 -0.294,-0.336 -0.503,-0.545 h -2.769 c 0,0 -0.335,0.293 -0.545,0.503 M 519.6,711.55 c -0.209,0.167 -0.335,0.293 -0.545,0.461 l -2.936,33.889 c 0.168,0.21 0.294,0.336 0.461,0.546 l 3.272,0.251 c 0.21,-0.168 0.335,-0.293 0.545,-0.461 l 2.391,-33.931 c -0.168,-0.21 -0.294,-0.336 -0.461,-0.546 l -2.769,-0.209 z m -19.671,-1.636 -5.285,33.596 c 0.168,0.251 0.252,0.377 0.42,0.587 l 3.271,0.503 c 0.252,-0.168 0.378,-0.252 0.587,-0.419 l 4.782,-33.68 a 7,7 0 0 0 -0.42,-0.587 l -2.726,-0.419 a 7,7 0 0 0 -0.587,0.419 z M 481.6,706.055 a 5,5 0 0 1 -0.629,0.378 l -7.634,33.134 c 0.168,0.252 0.252,0.378 0.378,0.629 l 3.229,0.713 c 0.252,-0.168 0.378,-0.251 0.629,-0.377 l 7.089,-33.26 a 5,5 0 0 1 -0.378,-0.63 l -2.726,-0.587 z m -15.938,-3.942 -2.643,-0.797 c -0.251,0.126 -0.377,0.21 -0.671,0.335 l -9.898,32.547 c 0.126,0.252 0.21,0.378 0.336,0.672 l 3.145,0.922 c 0.252,-0.126 0.378,-0.209 0.671,-0.335 l 9.395,-32.673 c -0.125,-0.252 -0.209,-0.378 -0.335,-0.671 m -18.329,-5.788 -2.6,-0.965 c -0.252,0.126 -0.419,0.168 -0.671,0.293 l -12.163,31.751 c 0.126,0.251 0.168,0.419 0.293,0.671 l 3.104,1.174 c 0.252,-0.126 0.419,-0.168 0.671,-0.293 l 11.66,-31.96 c -0.126,-0.252 -0.168,-0.42 -0.294,-0.671 m -17.824,-7.089 -2.517,-1.132 c -0.251,0.084 -0.419,0.168 -0.712,0.252 l -14.345,30.827 c 0.084,0.252 0.168,0.42 0.252,0.713 l 3.02,1.384 c 0.251,-0.084 0.419,-0.168 0.713,-0.251 l 13.841,-31.038 c -0.084,-0.251 -0.168,-0.419 -0.252,-0.713 z m -17.324,-8.346 -2.432,-1.342 c -0.294,0.084 -0.42,0.126 -0.713,0.21 l -16.442,29.737 c 0.084,0.293 0.126,0.419 0.21,0.713 l 2.894,1.593 c 0.294,-0.084 0.42,-0.125 0.713,-0.209 l 15.98,-29.989 c -0.084,-0.294 -0.126,-0.42 -0.21,-0.713 m -16.691,-9.479 -2.349,-1.51 c -0.294,0.042 -0.42,0.084 -0.713,0.168 l -18.497,28.52 c 0.084,0.294 0.084,0.42 0.168,0.714 l 2.768,1.761 c 0.294,-0.042 0.42,-0.084 0.713,-0.168 l 18.035,-28.814 c -0.041,-0.294 -0.083,-0.419 -0.167,-0.713 z m -15.981,-10.653 -2.223,-1.636 c -0.294,0.042 -0.462,0.084 -0.713,0.126 l -20.426,27.178 c 0.042,0.294 0.084,0.462 0.126,0.713 l 2.642,1.972 c 0.294,-0.042 0.461,-0.084 0.713,-0.126 l 20.007,-27.472 c -0.042,-0.294 -0.084,-0.462 -0.126,-0.713 z m -15.225,-11.744 -2.097,-1.804 c -0.293,0 -0.461,0 -0.755,0.042 l -22.271,25.669 c 0,0.293 0,0.461 0.042,0.755 l 2.517,2.139 c 0.293,0 0.461,0 0.755,-0.042 l 21.893,-26.046 c 0,-0.294 0,-0.462 -0.042,-0.755 z m -38.713,12.415 h 0.755 l 23.655,-24.453 v -0.755 l -1.971,-1.929 h -0.755 l -24.033,24.075 v 0.755 z m -14.386,-15.435 25.291,-22.733 c 0,-0.293 0,-0.461 0.042,-0.755 l -1.845,-2.097 c -0.294,0 -0.462,0 -0.755,-0.042 l -25.627,22.355 c 0,0.294 0,0.462 -0.042,0.755 l 2.181,2.475 c 0.294,0 0.462,0 0.755,0.042 m -14.009,-16.483 26.801,-20.93 c 0,-0.293 0.042,-0.461 0.084,-0.755 l -1.677,-2.181 c -0.294,0 -0.462,-0.041 -0.713,-0.083 l -27.137,20.509 c 0,0.294 -0.042,0.462 -0.084,0.713 l 2.013,2.601 c 0.294,0 0.462,0.042 0.713,0.084 z m -12.834,-17.364 28.227,-19 a 3.5,3.5 0 0 1 0.168,-0.713 l -1.51,-2.307 a 3.6,3.6 0 0 1 -0.713,-0.168 l -28.479,18.539 a 3.6,3.6 0 0 1 -0.168,0.713 l 1.804,2.768 c 0.293,0.042 0.461,0.084 0.713,0.168 z M 272.77,593.86 302.255,576.873 c 0.084,-0.294 0.126,-0.419 0.21,-0.713 l -1.384,-2.433 c -0.294,-0.083 -0.419,-0.125 -0.713,-0.209 l -29.737,16.525 c -0.084,0.293 -0.126,0.419 -0.21,0.713 l 1.636,2.852 c 0.294,0.084 0.419,0.126 0.713,0.21 z m -10.317,-19 30.575,-14.89 c 0.084,-0.251 0.168,-0.419 0.252,-0.713 l -1.174,-2.516 c -0.252,-0.084 -0.42,-0.168 -0.713,-0.252 l -30.786,14.386 c -0.084,0.252 -0.168,0.42 -0.252,0.713 l 1.426,2.978 c 0.252,0.084 0.42,0.168 0.714,0.252 z m -8.934,-19.713 31.54,-12.709 c 0.126,-0.251 0.168,-0.419 0.294,-0.671 l -1.007,-2.6 c -0.252,-0.126 -0.419,-0.168 -0.671,-0.294 l -31.75,12.206 c -0.126,0.251 -0.168,0.419 -0.294,0.671 l 1.216,3.061 c 0.252,0.126 0.42,0.168 0.672,0.294 z m -7.509,-20.258 32.337,-10.486 0.336,-0.671 -0.839,-2.642 -0.671,-0.336 -32.505,9.983 -0.336,0.671 1.007,3.145 z m -6.122,-20.719 33.008,-8.179 c 0.168,-0.252 0.252,-0.378 0.378,-0.629 l -0.629,-2.685 c -0.252,-0.167 -0.378,-0.251 -0.629,-0.377 l -33.135,7.675 a 5,5 0 0 0 -0.377,0.629 l 0.755,3.188 c 0.251,0.168 0.377,0.252 0.629,0.378 m -4.614,-21.097 33.512,-5.872 c 0.168,-0.252 0.252,-0.378 0.419,-0.588 l -0.461,-2.726 c -0.252,-0.168 -0.378,-0.251 -0.587,-0.419 l -33.596,5.368 a 7,7 0 0 1 -0.419,0.588 l 0.545,3.271 c 0.251,0.168 0.377,0.252 0.587,0.419 z m -3.187,-21.391 33.805,-3.523 c 0.168,-0.21 0.294,-0.336 0.461,-0.587 l -0.251,-2.769 c -0.21,-0.167 -0.336,-0.293 -0.587,-0.461 l -33.89,3.02 c -0.168,0.21 -0.293,0.335 -0.461,0.587 l 0.335,3.272 c 0.21,0.167 0.336,0.293 0.588,0.461 m -1.637,-21.558 33.974,-1.133 c 0.209,-0.209 0.293,-0.335 0.503,-0.545 l -0.084,-2.768 c -0.21,-0.21 -0.335,-0.294 -0.545,-0.503 l -34.015,0.629 c -0.21,0.209 -0.294,0.335 -0.504,0.545 l 0.084,3.313 c 0,0 0.336,0.294 0.546,0.504 z m -0.671,-22.188 c 0.21,0.21 0.294,0.336 0.504,0.546 l 33.973,1.216 c 0.21,-0.21 0.335,-0.294 0.545,-0.503 l 0.126,-2.769 c -0.21,-0.209 -0.294,-0.335 -0.503,-0.545 l -33.974,-1.762 c -0.209,0.21 -0.335,0.294 -0.545,0.504 z m 1.762,-24.871 -0.377,3.271 c 0.168,0.21 0.293,0.336 0.461,0.587 l 33.806,3.607 c 0.209,-0.168 0.335,-0.293 0.587,-0.461 l 0.293,-2.768 c -0.167,-0.21 -0.293,-0.336 -0.461,-0.588 l -33.763,-4.11 c -0.21,0.168 -0.336,0.294 -0.588,0.462 z m 3.145,-21.433 -0.587,3.23 0.419,0.629 33.47,5.956 0.629,-0.42 0.503,-2.726 -0.419,-0.629 -33.386,-6.459 z m 4.614,-21.139 -0.839,3.188 c 0.126,0.251 0.209,0.377 0.377,0.629 l 32.967,8.262 c 0.251,-0.167 0.377,-0.209 0.629,-0.377 l 0.713,-2.684 a 5,5 0 0 0 -0.378,-0.629 l -32.84,-8.766 c -0.252,0.167 -0.378,0.209 -0.629,0.377 m 6.081,-20.803 -1.049,3.145 0.336,0.672 32.337,10.527 0.671,-0.335 0.881,-2.643 -0.335,-0.671 -32.17,-11.031 z m 7.508,-20.3 -1.258,3.062 c 0.126,0.251 0.168,0.419 0.294,0.671 l 31.498,12.75 c 0.252,-0.126 0.42,-0.168 0.671,-0.293 l 1.049,-2.559 c -0.126,-0.252 -0.168,-0.419 -0.294,-0.671 l -31.33,-13.254 c -0.252,0.126 -0.42,0.168 -0.672,0.294 z m 8.934,-19.713 -1.468,2.936 c 0.084,0.294 0.126,0.419 0.252,0.713 l 30.534,14.931 c 0.294,-0.083 0.419,-0.125 0.713,-0.251 l 1.216,-2.475 a 5,5 0 0 0 -0.251,-0.713 l -30.324,-15.393 c -0.294,0.084 -0.42,0.126 -0.714,0.252 z m 10.276,-19.084 -1.678,2.852 c 0.084,0.294 0.126,0.42 0.168,0.713 l 29.443,17.029 c 0.294,-0.084 0.42,-0.126 0.713,-0.168 l 1.426,-2.391 c -0.083,-0.293 -0.125,-0.419 -0.167,-0.713 l -29.15,-17.49 c -0.294,0.084 -0.42,0.126 -0.713,0.168 z m 11.535,-18.287 -1.888,2.727 c 0.042,0.293 0.084,0.461 0.126,0.713 l 28.185,19.041 c 0.294,-0.042 0.462,-0.083 0.713,-0.125 l 1.552,-2.265 c -0.042,-0.294 -0.084,-0.462 -0.126,-0.713 l -27.891,-19.462 c -0.294,0.042 -0.461,0.084 -0.713,0.126 z m 12.834,-17.448 -2.055,2.601 c 0,0.293 0.042,0.461 0.084,0.755 l 26.759,20.971 c 0.294,0 0.461,-0.042 0.755,-0.084 l 1.72,-2.181 c 0,-0.294 -0.042,-0.461 -0.084,-0.755 l -26.466,-21.39 c -0.293,0 -0.461,0.041 -0.755,0.083 z m 14.008,-16.525 -2.223,2.433 v 0.755 l 25.249,22.774 h 0.755 l 1.888,-2.055 v -0.755 l -24.914,-23.152 z m 15.14,-15.476 -2.39,2.264 v 0.755 l 23.613,24.495 h 0.755 l 2.013,-1.93 v -0.755 l -23.236,-24.829 z m 36.113,14.553 2.139,-1.761 c 0,-0.294 0.042,-0.462 0.084,-0.755 L 342.519,198.47 c -0.293,0 -0.461,-0.042 -0.755,-0.084 l -2.558,2.098 c 0,0.293 -0.042,0.461 -0.084,0.754 l 21.852,26.089 c 0.294,0 0.461,0.041 0.755,0.083 m 15.058,-11.911 2.265,-1.594 c 0.042,-0.294 0.084,-0.461 0.126,-0.713 l -19.545,-27.85 c -0.294,-0.042 -0.461,-0.083 -0.713,-0.125 l -2.684,1.929 c -0.042,0.294 -0.084,0.461 -0.126,0.713 l 19.964,27.514 c 0.294,0.042 0.462,0.084 0.713,0.126 m 0.126,-42.32 -2.81,1.72 c -0.084,0.293 -0.126,0.419 -0.168,0.713 l 17.994,28.856 c 0.293,0.084 0.419,0.126 0.713,0.168 l 2.348,-1.468 c 0.084,-0.294 0.126,-0.42 0.168,-0.713 l -17.532,-29.108 c -0.293,-0.084 -0.419,-0.126 -0.713,-0.168 m 18.831,-10.695 -2.936,1.51 c -0.084,0.293 -0.126,0.419 -0.21,0.713 l 15.938,30.031 c 0.294,0.083 0.42,0.125 0.713,0.209 l 2.475,-1.3 c 0.084,-0.294 0.126,-0.419 0.21,-0.713 l -15.477,-30.282 c -0.293,-0.084 -0.419,-0.126 -0.713,-0.21 z m 19.504,-9.395 -3.02,1.3 c -0.126,0.252 -0.168,0.419 -0.252,0.671 l 13.799,31.079 c 0.252,0.126 0.42,0.168 0.671,0.252 l 2.559,-1.091 c 0.126,-0.251 0.168,-0.419 0.251,-0.671 l -13.337,-31.288 c -0.252,-0.126 -0.42,-0.168 -0.671,-0.252 m 20.133,-8.011 -3.104,1.09 -0.335,0.671 11.618,31.96 0.671,0.336 2.6,-0.923 0.336,-0.671 -11.115,-32.128 z m 20.593,-6.585 -3.187,0.881 c -0.126,0.251 -0.21,0.377 -0.378,0.629 l 9.353,32.715 c 0.252,0.126 0.378,0.209 0.629,0.377 l 2.685,-0.755 c 0.125,-0.251 0.209,-0.377 0.377,-0.629 l -8.85,-32.841 c -0.251,-0.125 -0.377,-0.209 -0.629,-0.377 m 21.055,-5.117 -3.229,0.671 -0.42,0.629 7.047,33.26 0.629,0.42 2.726,-0.545 0.419,-0.63 -6.543,-33.386 z m 25.668,31.121 c 0.168,-0.21 0.294,-0.377 0.461,-0.587 l -4.194,-33.764 c -0.209,-0.167 -0.377,-0.293 -0.587,-0.461 l -3.271,0.42 c -0.168,0.209 -0.294,0.377 -0.462,0.587 l 4.698,33.679 c 0.209,0.168 0.377,0.294 0.587,0.462 l 2.768,-0.378 z m 16.315,-1.761 2.768,-0.168 c 0.21,-0.21 0.294,-0.336 0.504,-0.545 l -1.804,-33.974 c -0.21,-0.209 -0.335,-0.293 -0.545,-0.503 l -3.272,0.21 c -0.209,0.209 -0.293,0.335 -0.503,0.545 l 2.349,33.931 c 0.21,0.21 0.335,0.294 0.545,0.504 z m 19.252,-35.819 c 0,0 -0.335,0.335 -0.545,0.503 v 34.015 c 0,0 0.294,0.336 0.503,0.546 h 2.768 c 0,0 0.336,-0.294 0.546,-0.504 l 0.545,-34.015 c 0,0 -0.336,-0.335 -0.503,-0.545 z m 22.482,35.357 2.936,-33.889 c -0.168,-0.21 -0.294,-0.336 -0.462,-0.545 l -3.271,-0.252 c -0.21,0.168 -0.336,0.294 -0.546,0.461 l -2.39,33.932 c 0.168,0.209 0.293,0.335 0.461,0.545 l 2.768,0.21 c 0.21,-0.168 0.336,-0.294 0.546,-0.462 z m 18.537,2.559 c 0.252,-0.168 0.378,-0.252 0.587,-0.42 l 5.285,-33.596 c -0.168,-0.251 -0.251,-0.377 -0.419,-0.587 l -3.272,-0.503 c -0.251,0.168 -0.377,0.252 -0.587,0.419 l -4.781,33.68 c 0.167,0.252 0.251,0.378 0.419,0.587 l 2.726,0.42 z m 18.916,3.397 c 0.252,-0.168 0.378,-0.252 0.63,-0.378 l 7.633,-33.134 c -0.168,-0.252 -0.252,-0.377 -0.377,-0.629 l -3.23,-0.713 c -0.252,0.168 -0.378,0.252 -0.629,0.377 l -7.088,33.261 c 0.167,0.251 0.251,0.377 0.377,0.629 l 2.726,0.587 z m 18.582,4.739 c 0.251,-0.125 0.377,-0.209 0.671,-0.335 l 9.898,-32.547 c -0.126,-0.252 -0.21,-0.378 -0.336,-0.671 l -3.145,-0.923 c -0.252,0.126 -0.378,0.21 -0.671,0.335 l -9.395,32.673 c 0.126,0.252 0.209,0.378 0.335,0.672 z m 27.682,-27.891 c -0.252,0.126 -0.419,0.168 -0.671,0.293 l -11.66,31.96 c 0.126,0.252 0.168,0.42 0.294,0.671 l 2.6,0.965 c 0.252,-0.126 0.419,-0.168 0.671,-0.293 l 12.163,-31.751 c -0.126,-0.251 -0.168,-0.419 -0.293,-0.671 z m 20.132,8.011 c -0.251,0.084 -0.419,0.168 -0.713,0.251 l -13.841,31.038 c 0.084,0.251 0.168,0.419 0.252,0.713 l 2.517,1.132 c 0.251,-0.084 0.419,-0.168 0.713,-0.251 l 14.344,-30.828 c -0.084,-0.252 -0.168,-0.419 -0.252,-0.713 l -3.02,-1.384 z m 19.502,9.395 c -0.294,0.084 -0.419,0.126 -0.713,0.21 l -15.98,29.988 c 0.084,0.294 0.126,0.42 0.21,0.713 l 2.432,1.342 c 0.294,-0.083 0.42,-0.125 0.713,-0.209 l 16.442,-29.779 c -0.084,-0.294 -0.126,-0.42 -0.21,-0.713 z m 18.832,10.695 c -0.294,0.042 -0.419,0.084 -0.713,0.168 l -18.035,28.814 c 0.042,0.294 0.084,0.42 0.168,0.713 l 2.348,1.51 c 0.294,-0.042 0.42,-0.084 0.713,-0.168 l 18.497,-28.52 c -0.084,-0.294 -0.084,-0.42 -0.168,-0.713 l -2.768,-1.762 z m 17.995,12.038 c -0.294,0.041 -0.462,0.083 -0.713,0.125 l -20.007,27.473 c 0.042,0.293 0.084,0.461 0.126,0.713 l 2.223,1.635 c 0.293,-0.042 0.461,-0.084 0.713,-0.126 l 20.426,-27.178 c -0.042,-0.294 -0.084,-0.461 -0.126,-0.713 l -2.642,-1.971 z m 17.153,13.253 c -0.293,0 -0.461,0 -0.755,0.042 l -21.893,26.046 c 0,0.294 0,0.462 0.042,0.755 l 2.097,1.804 c 0.293,0 0.461,0 0.755,-0.042 l 22.271,-25.669 c 0,-0.293 0,-0.461 -0.042,-0.755 l -2.517,-2.139 z m 16.147,14.387 h -0.755 l -23.655,24.452 v 0.755 l 1.971,1.929 h 0.755 l 24.033,-24.075 v -0.755 z m 14.388,15.434 -25.291,22.733 c 0,0.294 0,0.461 -0.042,0.755 l 1.845,2.097 c 0.294,0 0.462,0 0.755,0.042 l 25.627,-22.355 c 0,-0.294 0,-0.462 0.042,-0.755 l -2.181,-2.475 c -0.294,0 -0.461,0 -0.755,-0.042 m 14.008,16.484 -26.802,20.929 c 0,0.293 -0.041,0.461 -0.083,0.713 l 1.677,2.181 c 0.294,0 0.462,0.042 0.713,0.084 l 27.137,-20.51 c 0,-0.294 0.042,-0.462 0.084,-0.713 l -2.013,-2.601 c -0.294,0 -0.462,-0.042 -0.713,-0.083 m 12.835,17.406 -28.227,18.999 a 3.5,3.5 0 0 1 -0.168,0.713 l 1.51,2.307 c 0.293,0.042 0.461,0.084 0.713,0.168 l 28.479,-18.538 c 0.041,-0.294 0.083,-0.462 0.167,-0.713 l -1.803,-2.769 a 3.5,3.5 0 0 1 -0.713,-0.167 z m 11.575,18.244 -29.486,16.987 c -0.084,0.294 -0.126,0.419 -0.21,0.713 l 1.385,2.433 c 0.293,0.084 0.419,0.125 0.713,0.209 l 29.737,-16.525 c 0.083,-0.293 0.125,-0.419 0.209,-0.713 l -1.635,-2.852 c -0.294,-0.084 -0.42,-0.126 -0.713,-0.21 z m 10.276,19 -30.576,14.89 c -0.084,0.252 -0.168,0.419 -0.251,0.713 l 1.174,2.516 c 0.252,0.084 0.419,0.168 0.713,0.252 l 30.786,-14.386 c 0.083,-0.252 0.167,-0.42 0.251,-0.713 l -1.426,-2.978 c -0.252,-0.084 -0.419,-0.168 -0.713,-0.252 z m 8.934,19.713 -31.54,12.709 c -0.126,0.251 -0.168,0.419 -0.294,0.671 l 1.007,2.558 c 0.251,0.126 0.419,0.168 0.671,0.294 l 31.75,-12.205 c 0.126,-0.252 0.168,-0.42 0.294,-0.671 l -1.217,-3.062 c -0.251,-0.126 -0.419,-0.168 -0.671,-0.294 m 7.548,20.258 -32.337,10.486 -0.336,0.671 0.839,2.642 0.671,0.336 32.505,-9.983 0.336,-0.671 -1.007,-3.145 z m 6.083,20.72 -33.008,8.178 a 5,5 0 0 0 -0.378,0.63 l 0.629,2.684 c 0.252,0.168 0.378,0.251 0.629,0.377 l 33.135,-7.675 c 0.167,-0.252 0.251,-0.378 0.377,-0.629 l -0.755,-3.188 a 5,5 0 0 0 -0.629,-0.377 m 4.656,21.139 -33.512,5.872 c -0.168,0.251 -0.252,0.377 -0.42,0.587 l 0.462,2.726 c 0.251,0.168 0.377,0.252 0.587,0.419 l 33.596,-5.368 c 0.167,-0.252 0.251,-0.378 0.419,-0.587 l -0.545,-3.272 a 7,7 0 0 1 -0.587,-0.419 z m 3.145,21.39 -33.806,3.523 c -0.167,0.21 -0.293,0.336 -0.461,0.587 l 0.252,2.769 c 0.209,0.167 0.335,0.293 0.587,0.461 l 33.889,-3.02 c 0.168,-0.21 0.294,-0.335 0.462,-0.587 l -0.336,-3.272 c -0.21,-0.167 -0.335,-0.293 -0.587,-0.461 m -32.841,23.236 0.083,2.768 c 0,0 0.336,0.294 0.546,0.504 l 34.015,-0.63 c 0.209,-0.209 0.293,-0.335 0.503,-0.545 l -0.084,-3.313 c -0.209,-0.21 -0.335,-0.294 -0.545,-0.504 l -33.973,1.175 c -0.21,0.21 -0.294,0.335 -0.504,0.545 z m 35.147,20.468 c -0.21,-0.21 -0.294,-0.336 -0.503,-0.545 l -33.973,-1.217 c -0.21,0.21 -0.336,0.294 -0.546,0.504 l -0.125,2.768 c 0.209,0.21 0.293,0.335 0.503,0.545 l 33.973,1.762 c 0.21,-0.21 0.336,-0.294 0.545,-0.504 z m -1.76,24.872 0.378,-3.272 c -0.168,-0.21 -0.294,-0.335 -0.462,-0.587 l -33.805,-3.607 c -0.21,0.168 -0.336,0.294 -0.587,0.461 l -0.294,2.769 c 0.168,0.209 0.294,0.335 0.462,0.587 l 33.763,4.11 c 0.21,-0.168 0.336,-0.294 0.587,-0.461 z m -3.147,21.432 0.587,-3.229 -0.419,-0.63 -33.47,-5.955 -0.629,0.419 -0.504,2.726 0.42,0.629 33.386,6.46 z m -4.614,21.181 0.839,-3.188 a 5,5 0 0 0 -0.377,-0.629 l -32.967,-8.262 c -0.252,0.167 -0.377,0.209 -0.629,0.377 l -0.713,2.684 c 0.168,0.252 0.21,0.378 0.377,0.63 l 32.841,8.765 c 0.252,-0.167 0.378,-0.209 0.629,-0.377 m -6.081,20.761 1.048,-3.145 -0.335,-0.671 -32.338,-10.528 -0.671,0.336 -0.881,2.642 0.336,0.671 32.169,11.031 z m -7.507,20.3 1.258,-3.061 c -0.126,-0.252 -0.168,-0.42 -0.294,-0.671 l -31.498,-12.751 c -0.252,0.126 -0.42,0.168 -0.671,0.294 l -1.049,2.558 c 0.126,0.252 0.168,0.42 0.294,0.671 l 31.331,13.254 c 0.251,-0.126 0.419,-0.168 0.671,-0.294 z m -8.893,19.755 1.468,-2.936 a 5,5 0 0 0 -0.251,-0.713 L 788.659,556.07 a 5,5 0 0 0 -0.713,0.251 l -1.259,2.475 c 0.084,0.294 0.126,0.42 0.252,0.713 l 30.324,15.393 a 5,5 0 0 0 0.713,-0.252 m -10.274,19.042 1.678,-2.852 c -0.084,-0.294 -0.126,-0.419 -0.168,-0.713 l -29.444,-17.029 c -0.293,0.084 -0.419,0.126 -0.713,0.168 l -1.426,2.391 c 0.084,0.293 0.126,0.419 0.168,0.713 l 29.15,17.49 c 0.293,-0.084 0.419,-0.126 0.713,-0.168 z m -11.577,18.287 1.888,-2.727 c -0.042,-0.293 -0.084,-0.461 -0.126,-0.713 l -28.185,-19.041 c -0.294,0.042 -0.462,0.084 -0.714,0.126 l -1.551,2.264 c 0.042,0.294 0.083,0.462 0.125,0.713 l 27.892,19.462 c 0.294,-0.042 0.461,-0.084 0.713,-0.126 z m -12.835,17.448 2.055,-2.601 c 0,-0.293 -0.042,-0.461 -0.084,-0.755 L 758.502,605.1 c -0.294,0 -0.461,0.042 -0.755,0.084 l -1.72,2.181 c 0,0.294 0.042,0.462 0.084,0.755 l 26.466,21.391 c 0.293,0 0.461,-0.042 0.755,-0.084 z m -14.009,16.525 2.223,-2.433 v -0.755 L 746.255,619.99 H 745.5 l -1.887,2.055 v 0.755 l 24.913,23.152 z m -15.098,15.477 2.391,-2.265 v -0.755 l -23.613,-24.494 h -0.755 l -2.014,1.929 v 0.755 l 23.236,24.83 z m -16.19,14.428 2.558,-2.097 c 0,-0.294 0.042,-0.462 0.084,-0.755 l -21.852,-26.088 c -0.293,0 -0.461,-0.042 -0.755,-0.084 l -2.139,1.761 c 0,0.294 -0.042,0.462 -0.083,0.755 l 21.432,26.382 c 0.294,0 0.461,0.042 0.755,0.084 z m -35.021,-17.071 -2.265,1.594 c -0.042,0.294 -0.084,0.462 -0.126,0.713 l 19.545,27.85 c 0.294,0.042 0.461,0.084 0.713,0.126 l 2.684,-1.93 c 0.042,-0.293 0.084,-0.461 0.126,-0.713 l -19.964,-27.514 c -0.294,-0.042 -0.462,-0.084 -0.713,-0.126 m -15.855,10.863 -2.348,1.468 c -0.084,0.294 -0.126,0.42 -0.168,0.713 l 17.532,29.108 c 0.293,0.084 0.419,0.126 0.713,0.168 l 2.81,-1.72 c 0.084,-0.293 0.126,-0.419 0.167,-0.713 L 687.83,669.817 c -0.293,-0.084 -0.419,-0.126 -0.713,-0.168 m -3.06,42.194 2.935,-1.51 c 0.084,-0.293 0.126,-0.419 0.21,-0.713 l -15.938,-30.03 c -0.293,-0.084 -0.419,-0.126 -0.713,-0.21 l -2.475,1.3 c -0.083,0.294 -0.125,0.42 -0.209,0.713 l 15.476,30.282 c 0.294,0.084 0.42,0.126 0.714,0.21 z m -30.704,-23.991 -2.558,1.091 c -0.126,0.251 -0.168,0.419 -0.252,0.671 l 13.338,31.289 c 0.251,0.126 0.419,0.168 0.671,0.251 l 3.02,-1.3 c 0.125,-0.251 0.167,-0.419 0.251,-0.671 l -13.799,-31.079 c -0.251,-0.126 -0.419,-0.168 -0.671,-0.252 m -17.783,7.298 -2.601,0.923 -0.335,0.671 11.114,32.128 0.671,0.335 3.104,-1.09 0.336,-0.671 -11.618,-31.96 z m -18.202,6.04 -2.684,0.755 c -0.126,0.251 -0.21,0.377 -0.378,0.629 l 8.85,32.841 c 0.252,0.126 0.378,0.209 0.629,0.377 l 3.188,-0.88 a 5,5 0 0 1 0.378,-0.63 l -9.354,-32.715 c -0.251,-0.125 -0.377,-0.209 -0.629,-0.377 m -14.597,39.719 3.229,-0.671 0.419,-0.629 -7.046,-33.26 -0.629,-0.42 -2.726,0.546 -0.42,0.629 6.543,33.386 z m -25.667,-31.121 c -0.168,0.21 -0.294,0.378 -0.462,0.587 l 4.195,33.764 c 0.209,0.167 0.377,0.293 0.587,0.461 l 3.271,-0.419 c 0.168,-0.21 0.294,-0.378 0.462,-0.588 l -4.698,-33.679 c -0.209,-0.168 -0.377,-0.294 -0.587,-0.461 l -2.768,0.377 z m -19.127,1.929 c -0.21,0.21 -0.294,0.336 -0.503,0.546 l 1.803,33.973 c 0.21,0.21 0.336,0.293 0.545,0.503 l 3.272,-0.21 c 0.21,-0.209 0.293,-0.335 0.503,-0.545 l -2.349,-33.931 c -0.209,-0.21 -0.335,-0.294 -0.545,-0.503 l -2.768,0.167 z m -9.226,17.994 a 6,6 0 0 0 -0.504,0.545 l 0.294,16.441 c 0.21,0.21 0.336,0.336 0.545,0.504 l 3.314,-0.084 c 0,0 0.293,-0.336 0.503,-0.546 l -0.545,-16.483 c -0.21,-0.21 -0.336,-0.293 -0.545,-0.503 l -3.02,0.126 z m -20.426,-0.084 c -0.21,0.21 -0.336,0.293 -0.546,0.503 l -0.838,16.441 c 0.209,0.21 0.293,0.336 0.503,0.546 l 3.313,0.126 c 0,0 0.336,-0.294 0.546,-0.504 l 0.587,-16.483 c -0.21,-0.21 -0.294,-0.336 -0.504,-0.545 l -3.019,-0.126 z m -20.971,-1.049 -2.013,16.316 c 0.167,0.251 0.293,0.377 0.461,0.587 l 3.272,0.377 c 0.209,-0.167 0.335,-0.293 0.587,-0.461 l 1.761,-16.399 c -0.167,-0.21 -0.293,-0.378 -0.461,-0.588 l -3.02,-0.335 c -0.21,0.168 -0.377,0.293 -0.587,0.461 z m -19.714,14.386 c 0.209,-0.167 0.377,-0.251 0.629,-0.419 l 2.894,-16.232 -0.42,-0.629 -2.977,-0.545 -0.63,0.419 -3.145,16.148 0.419,0.629 3.23,0.587 z m -20.509,-21.768 -4.236,15.896 c 0.167,0.252 0.251,0.42 0.377,0.672 l 3.188,0.838 c 0.251,-0.125 0.377,-0.209 0.629,-0.377 l 4.026,-15.98 c -0.167,-0.252 -0.251,-0.378 -0.377,-0.629 l -2.936,-0.713 a 5,5 0 0 1 -0.629,0.377 z m -18.958,-6.081 -0.671,0.335 -5.327,15.561 0.336,0.671 3.146,1.048 c 0.251,-0.125 0.377,-0.209 0.671,-0.335 l 5.117,-15.686 -0.336,-0.672 -2.894,-0.922 z m -16.359,-5.956 -2.81,-1.132 c -0.251,0.125 -0.419,0.167 -0.713,0.293 l -6.417,15.141 c 0.126,0.294 0.168,0.42 0.294,0.713 l 3.061,1.259 c 0.252,-0.126 0.42,-0.168 0.672,-0.294 l 6.207,-15.267 c -0.126,-0.252 -0.168,-0.419 -0.294,-0.713 m -26.423,7.549 c 0.252,-0.083 0.419,-0.125 0.713,-0.251 l 7.256,-14.806 c -0.084,-0.293 -0.168,-0.419 -0.252,-0.713 l -2.726,-1.342 a 5,5 0 0 0 -0.713,0.252 l -7.466,14.679 c 0.084,0.294 0.126,0.42 0.252,0.713 z m -10.402,-25.249 -2.642,-1.51 a 6,6 0 0 1 -0.713,0.168 l -8.473,14.093 c 0.084,0.293 0.126,0.461 0.168,0.755 l 2.852,1.677 c 0.252,-0.084 0.42,-0.126 0.713,-0.209 l 8.263,-14.261 c -0.084,-0.293 -0.126,-0.461 -0.21,-0.713 z m -17.364,-10.737 -2.517,-1.678 c -0.293,0.042 -0.461,0.084 -0.755,0.126 l -9.437,13.464 c 0.042,0.293 0.084,0.461 0.126,0.755 l 2.726,1.845 c 0.252,-0.042 0.42,-0.084 0.713,-0.126 l 9.228,-13.631 c -0.042,-0.294 -0.084,-0.461 -0.126,-0.755 z m -19.755,-13.673 -10.359,12.792 c 0,0.294 0.041,0.462 0.083,0.755 l 2.601,2.056 c 0.251,0 0.419,-0.042 0.755,-0.084 l 10.15,-12.961 c 0,-0.293 -0.042,-0.461 -0.084,-0.755 l -2.391,-1.887 c -0.293,0 -0.461,0.042 -0.755,0.084 m -24.325,1.761 h 0.755 l 11.031,-12.247 v -0.755 l -2.265,-2.013 h -0.755 l -11.199,12.038 v 0.755 z m -14.932,-14.931 11.87,-11.45 v -0.755 l -2.098,-2.181 h -0.755 l -12.037,11.24 v 0.755 l 2.265,2.391 z m -14.555,-15.98 12.625,-10.569 c 0,-0.294 0,-0.462 0.084,-0.755 l -1.93,-2.307 c -0.293,0 -0.461,-0.042 -0.755,-0.084 l -12.792,10.36 c 0,0.293 -0.042,0.461 -0.084,0.755 l 2.097,2.558 c 0.252,0 0.42,0 0.755,0.084 z m -13.42,-16.945 13.338,-9.688 c 0.042,-0.294 0.084,-0.462 0.126,-0.755 l -1.804,-2.433 c -0.294,-0.042 -0.461,-0.084 -0.755,-0.126 l -13.463,9.437 c -0.042,0.294 -0.084,0.462 -0.126,0.755 l 1.929,2.685 c 0.252,0.042 0.42,0.084 0.755,0.125 m -12.249,-17.825 13.967,-8.724 c 0.084,-0.294 0.084,-0.461 0.168,-0.755 l -1.594,-2.558 a 6,6 0 0 0 -0.713,-0.168 l -14.092,8.472 a 5,5 0 0 0 -0.168,0.755 l 1.719,2.81 c 0.252,0.042 0.42,0.084 0.713,0.168 m -10.904,-18.664 14.554,-7.718 c 0.084,-0.293 0.126,-0.419 0.21,-0.713 l -1.426,-2.684 c -0.294,-0.084 -0.419,-0.126 -0.713,-0.21 l -14.638,7.466 c -0.084,0.294 -0.126,0.419 -0.21,0.713 l 1.51,2.936 c 0.252,0.084 0.42,0.126 0.713,0.21 m -9.645,-19.336 15.057,-6.669 c 0.126,-0.293 0.168,-0.419 0.251,-0.713 l -1.216,-2.768 c -0.251,-0.125 -0.419,-0.167 -0.713,-0.293 l -15.141,6.417 c -0.126,0.293 -0.168,0.419 -0.294,0.713 l 1.301,3.02 c 0.251,0.084 0.419,0.167 0.713,0.251 z m -8.223,-20.006 15.477,-5.62 0.335,-0.672 -1.048,-2.852 -0.671,-0.335 -15.561,5.369 -0.335,0.671 1.09,3.103 c 0.252,0.126 0.42,0.168 0.671,0.294 z m -6.836,-20.51 15.855,-4.53 c 0.125,-0.251 0.209,-0.419 0.377,-0.671 l -0.839,-2.936 c -0.251,-0.126 -0.377,-0.209 -0.671,-0.377 l -15.896,4.278 c -0.168,0.252 -0.21,0.419 -0.377,0.671 l 0.88,3.188 c 0.252,0.125 0.378,0.209 0.671,0.377 m -5.369,-20.929 16.106,-3.397 0.419,-0.63 -0.629,-2.977 -0.629,-0.42 -16.148,3.146 -0.419,0.629 0.671,3.23 c 0.209,0.167 0.377,0.251 0.629,0.419 m -3.9,-21.265 16.315,-2.265 c 0.168,-0.251 0.294,-0.377 0.462,-0.587 l -0.42,-3.02 c -0.251,-0.167 -0.377,-0.293 -0.587,-0.461 l -16.315,2.013 c -0.168,0.252 -0.294,0.378 -0.462,0.587 l 0.42,3.272 c 0.209,0.168 0.335,0.252 0.587,0.461 m -2.433,-21.474 16.441,-1.133 c 0.21,-0.209 0.294,-0.335 0.504,-0.587 l -0.21,-3.02 c -0.21,-0.209 -0.335,-0.293 -0.545,-0.503 l -16.442,0.881 c -0.209,0.21 -0.293,0.335 -0.503,0.587 l 0.21,3.271 c 0,0 0.335,0.294 0.545,0.504 m -1.427,-22.146 0.546,0.546 h 16.483 c 0,0 0.336,-0.294 0.545,-0.504 v -3.02 l -0.545,-0.545 -16.441,-0.293 -0.546,0.545 v 3.313 z m 0.883,-24.913 -0.252,3.271 c 0,0 0.294,0.336 0.504,0.545 l 16.441,1.175 c 0.21,-0.21 0.335,-0.294 0.587,-0.504 l 0.21,-3.019 c -0.21,-0.21 -0.294,-0.336 -0.504,-0.588 l -16.399,-1.426 c -0.21,0.21 -0.335,0.294 -0.587,0.504 z m 2.39,-21.517 -0.504,3.272 c 0.168,0.209 0.252,0.335 0.462,0.587 l 16.315,2.307 c 0.252,-0.168 0.378,-0.294 0.587,-0.462 l 0.42,-3.019 c -0.168,-0.252 -0.252,-0.378 -0.462,-0.588 l -16.231,-2.558 c -0.252,0.168 -0.378,0.294 -0.629,0.461 z m 3.859,-21.306 -0.713,3.229 c 0.168,0.21 0.251,0.378 0.419,0.629 l 16.106,3.44 0.629,-0.42 0.629,-2.978 -0.419,-0.629 -16.022,-3.691 z m 5.368,-21.013 -0.922,3.145 c 0.125,0.252 0.209,0.378 0.377,0.671 l 15.854,4.572 c 0.252,-0.126 0.42,-0.21 0.671,-0.377 l 0.839,-2.894 c -0.126,-0.252 -0.21,-0.42 -0.377,-0.672 l -15.729,-4.781 c -0.251,0.126 -0.419,0.21 -0.671,0.378 z m 6.794,-20.552 -1.132,3.104 c 0.126,0.251 0.168,0.419 0.335,0.671 l 15.477,5.662 0.671,-0.336 1.049,-2.852 a 4.6,4.6 0 0 1 -0.294,-0.671 l -15.351,-5.872 c -0.251,0.126 -0.419,0.21 -0.713,0.294 z m 8.223,-20.007 -1.385,3.02 c 0.084,0.252 0.168,0.42 0.252,0.713 l 15.057,6.711 c 0.294,-0.126 0.42,-0.168 0.713,-0.252 l 1.217,-2.768 c -0.084,-0.251 -0.168,-0.419 -0.252,-0.713 L 257.84,309.24 c -0.294,0.084 -0.42,0.168 -0.713,0.251 z m 9.604,-19.419 -1.552,2.894 c 0.084,0.252 0.126,0.42 0.21,0.713 l 14.554,7.759 c 0.294,-0.083 0.461,-0.125 0.713,-0.209 l 1.426,-2.685 c -0.084,-0.293 -0.126,-0.419 -0.21,-0.713 l -14.386,-7.969 c -0.293,0.084 -0.461,0.126 -0.713,0.21 z m 10.904,-18.706 -1.761,2.768 c 0.042,0.252 0.084,0.419 0.168,0.713 l 13.966,8.766 c 0.294,-0.084 0.462,-0.084 0.755,-0.168 l 1.594,-2.558 c -0.084,-0.294 -0.084,-0.462 -0.168,-0.713 l -13.799,-8.934 c -0.293,0.084 -0.461,0.084 -0.755,0.168 z m 12.205,-17.867 -1.971,2.642 c 0.042,0.252 0.084,0.419 0.126,0.755 l 13.337,9.689 c 0.294,-0.042 0.462,-0.084 0.755,-0.126 l 1.762,-2.433 c -0.042,-0.294 -0.084,-0.461 -0.126,-0.755 l -13.128,-9.898 c -0.294,0.042 -0.461,0.084 -0.755,0.126 m 13.422,-16.987 -2.139,2.516 c 0,0.252 0,0.42 0.084,0.755 l 12.625,10.612 c 0.293,0 0.461,0 0.755,-0.084 l 1.929,-2.307 c 0,-0.293 0,-0.461 -0.042,-0.755 L 304.101,236.47 c -0.293,0 -0.461,0 -0.755,0.042 z m 14.596,-16.022 -2.307,2.349 v 0.755 l 11.828,11.45 h 0.755 l 2.097,-2.181 v -0.755 l -11.66,-11.618 h -0.755 z m 27.137,-1.762 c 0,-0.293 0,-0.461 0.042,-0.755 l -10.821,-12.414 c -0.294,0 -0.461,0 -0.755,-0.042 l -2.474,2.181 v 0.755 l 10.988,12.247 h 0.755 l 2.265,-2.014 z m 5.158,-27.052 -2.601,2.013 c 0,0.252 -0.042,0.419 -0.083,0.755 l 10.108,13.002 c 0.293,0 0.461,0.042 0.755,0.084 l 2.39,-1.888 c 0,-0.293 0.042,-0.461 0.084,-0.754 L 350.95,191.76 c -0.294,0 -0.462,-0.042 -0.755,-0.084 m 17.574,-12.625 -2.768,1.804 c -0.042,0.251 -0.084,0.419 -0.126,0.713 l 9.186,13.673 c 0.293,0.042 0.461,0.084 0.754,0.126 l 2.517,-1.678 c 0.042,-0.294 0.084,-0.461 0.168,-0.755 l -8.976,-13.799 a 5,5 0 0 1 -0.755,-0.168 z m 18.454,-11.366 -2.852,1.636 c -0.084,0.251 -0.126,0.419 -0.21,0.713 l 8.221,14.302 c 0.294,0.084 0.461,0.126 0.713,0.21 l 2.642,-1.51 c 0.084,-0.294 0.126,-0.462 0.21,-0.713 l -7.969,-14.387 c -0.293,-0.083 -0.461,-0.125 -0.713,-0.209 z m 19.169,-10.066 -2.978,1.426 c -0.084,0.251 -0.126,0.419 -0.252,0.713 l 7.214,14.805 c 0.294,0.084 0.42,0.168 0.713,0.252 l 2.727,-1.342 c 0.084,-0.294 0.167,-0.42 0.251,-0.713 l -6.962,-14.89 c -0.294,-0.084 -0.419,-0.167 -0.713,-0.251 m 26.13,7.633 c 0.126,-0.251 0.167,-0.419 0.293,-0.671 l -5.914,-15.351 c -0.251,-0.126 -0.419,-0.168 -0.713,-0.293 l -3.061,1.216 c -0.126,0.252 -0.168,0.419 -0.294,0.671 l 6.166,15.309 c 0.251,0.126 0.419,0.168 0.713,0.294 l 2.81,-1.133 z m 16.316,-5.956 2.894,-0.922 0.335,-0.672 -4.823,-15.728 -0.671,-0.335 -3.146,1.006 c -0.126,0.252 -0.21,0.378 -0.336,0.671 l 5.075,15.687 0.672,0.335 z m 19.628,-5.746 2.936,-0.713 a 5,5 0 0 0 0.378,-0.629 l -3.691,-16.022 -0.629,-0.419 -3.188,0.755 c -0.126,0.251 -0.21,0.377 -0.377,0.629 l 3.984,15.98 c 0.252,0.168 0.378,0.251 0.629,0.377 z m 19.964,-4.362 2.978,-0.545 0.419,-0.629 -2.6,-16.232 c -0.252,-0.168 -0.378,-0.251 -0.629,-0.461 l -3.272,0.545 c -0.168,0.21 -0.252,0.378 -0.419,0.629 l 2.852,16.232 0.629,0.419 z m 20.217,-2.936 3.019,-0.335 c 0.168,-0.21 0.294,-0.336 0.462,-0.587 l -1.426,-16.4 c -0.21,-0.21 -0.336,-0.293 -0.588,-0.503 l -3.271,0.335 c -0.168,0.21 -0.294,0.336 -0.461,0.588 l 1.719,16.399 c 0.21,0.168 0.378,0.294 0.587,0.461 z m 23.403,-1.677 c 0.21,-0.21 0.293,-0.336 0.503,-0.546 l -0.293,-16.441 c -0.21,-0.21 -0.336,-0.336 -0.546,-0.503 l -3.313,0.084 c 0,0 -0.294,0.335 -0.503,0.545 l 0.545,16.483 c 0.209,0.21 0.335,0.294 0.545,0.503 l 3.02,-0.125 z m 20.972,-0.378 0.839,-16.441 c -0.21,-0.21 -0.294,-0.336 -0.504,-0.546 l -3.313,-0.125 c 0,0 -0.335,0.293 -0.545,0.503 l -0.587,16.483 c 0.209,0.21 0.293,0.336 0.503,0.545 l 3.02,0.126 c 0.209,-0.209 0.335,-0.293 0.545,-0.503 z m 16.818,1.678 3.02,0.335 c 0.21,-0.167 0.378,-0.293 0.587,-0.461 l 2.014,-16.316 c -0.168,-0.251 -0.294,-0.377 -0.462,-0.587 l -3.271,-0.377 c -0.21,0.168 -0.336,0.293 -0.587,0.461 l -1.762,16.4 c 0.168,0.209 0.294,0.377 0.461,0.587 z m 23.278,-14.512 c -0.21,0.168 -0.378,0.251 -0.63,0.419 l -2.894,16.232 0.42,0.629 2.978,0.545 0.629,-0.419 3.146,-16.148 -0.42,-0.629 -3.229,-0.587 z m 21.222,4.362 a 5,5 0 0 0 -0.629,0.377 l -4.026,15.98 c 0.168,0.252 0.252,0.378 0.377,0.629 l 2.936,0.713 c 0.252,-0.167 0.378,-0.251 0.629,-0.377 l 4.237,-15.896 c -0.168,-0.252 -0.252,-0.42 -0.378,-0.671 l -3.187,-0.839 z m 15.393,22.523 2.894,0.922 0.671,-0.335 5.327,-15.561 -0.336,-0.671 -3.145,-1.048 c -0.252,0.126 -0.378,0.209 -0.671,0.335 l -5.118,15.687 0.336,0.671 z m 25.838,-9.353 c -0.252,0.125 -0.419,0.167 -0.671,0.293 l -6.208,15.267 c 0.126,0.252 0.168,0.42 0.294,0.713 l 2.81,1.133 c 0.252,-0.126 0.42,-0.168 0.713,-0.294 l 6.417,-15.141 c -0.126,-0.294 -0.167,-0.42 -0.293,-0.713 z m 19.837,8.682 c -0.251,0.084 -0.419,0.126 -0.713,0.251 l -7.256,14.806 c 0.084,0.294 0.168,0.419 0.252,0.713 l 2.726,1.342 a 5,5 0 0 0 0.713,-0.252 l 7.466,-14.679 a 5,5 0 0 0 -0.252,-0.713 z m 19.168,10.066 c -0.251,0.084 -0.419,0.126 -0.713,0.21 l -8.262,14.26 c 0.084,0.293 0.126,0.461 0.209,0.713 l 2.643,1.51 c 0.293,-0.084 0.461,-0.126 0.713,-0.168 l 8.472,-14.093 a 5,5 0 0 1 -0.168,-0.755 l -2.852,-1.677 z m 18.414,11.366 c -0.252,0.042 -0.42,0.084 -0.713,0.126 l -9.228,13.631 c 0.042,0.294 0.084,0.462 0.126,0.755 l 2.517,1.678 c 0.293,-0.042 0.461,-0.084 0.755,-0.126 l 9.437,-13.463 c -0.042,-0.294 -0.084,-0.462 -0.126,-0.755 l -2.726,-1.846 z m 17.573,12.667 c -0.251,0 -0.419,0.042 -0.755,0.084 l -10.15,12.96 c 0,0.293 0.042,0.461 0.084,0.755 l 2.391,1.887 c 0.293,0 0.461,-0.042 0.755,-0.084 l 10.36,-12.792 c 0,-0.294 -0.042,-0.461 -0.084,-0.755 z m 16.693,13.799 h -0.755 l -11.03,12.247 v 0.755 l 2.265,2.013 h 0.754 l 11.199,-12.037 v -0.755 z m 14.889,14.973 -11.87,11.45 v 0.755 l 2.097,2.181 h 0.755 l 12.038,-11.24 v -0.755 l -2.265,-2.391 z m 14.597,15.938 -12.625,10.57 c 0,0.293 0,0.461 -0.083,0.755 l 1.929,2.306 c 0.293,0 0.461,0.042 0.755,0.084 l 12.792,-10.359 c 0,-0.294 0.042,-0.462 0.084,-0.755 l -2.097,-2.559 c -0.252,0 -0.419,0 -0.755,-0.084 z m 13.422,16.945 -13.338,9.688 c -0.042,0.294 -0.084,0.462 -0.126,0.755 l 1.762,2.433 c 0.293,0.042 0.461,0.084 0.755,0.126 l 13.463,-9.437 c 0.042,-0.294 0.084,-0.462 0.126,-0.755 l -1.929,-2.684 c -0.252,-0.042 -0.42,-0.084 -0.755,-0.126 z m 12.205,17.867 -13.967,8.724 c -0.084,0.294 -0.084,0.462 -0.168,0.755 l 1.594,2.559 c 0.294,0.083 0.461,0.125 0.713,0.167 l 14.093,-8.472 c 0.084,-0.294 0.125,-0.461 0.167,-0.755 l -1.719,-2.81 a 6,6 0 0 1 -0.713,-0.168 m 10.946,18.623 -14.553,7.717 c -0.084,0.294 -0.126,0.419 -0.21,0.713 l 1.426,2.684 c 0.293,0.084 0.419,0.126 0.713,0.21 l 14.638,-7.466 c 0.084,-0.293 0.126,-0.419 0.209,-0.713 l -1.509,-2.936 c -0.252,-0.084 -0.42,-0.126 -0.714,-0.209 m 9.604,19.377 -15.057,6.669 a 5,5 0 0 0 -0.252,0.713 l 1.216,2.768 c 0.252,0.126 0.42,0.168 0.713,0.293 l 15.141,-6.417 c 0.126,-0.293 0.168,-0.419 0.294,-0.713 l -1.3,-3.02 c -0.252,-0.083 -0.42,-0.167 -0.713,-0.251 z m 8.263,19.964 -15.477,5.621 -0.335,0.671 1.048,2.852 0.671,0.335 15.561,-5.368 0.335,-0.671 -1.09,-3.104 c -0.252,-0.126 -0.419,-0.168 -0.671,-0.336 z m 6.795,20.51 -15.855,4.53 a 5,5 0 0 1 -0.377,0.671 l 0.839,2.894 c 0.252,0.126 0.377,0.21 0.671,0.377 l 15.896,-4.278 c 0.168,-0.251 0.21,-0.419 0.377,-0.671 l -0.88,-3.187 c -0.252,-0.126 -0.378,-0.21 -0.671,-0.378 z m 5.411,20.929 -16.106,3.398 -0.419,0.629 0.629,2.978 0.629,0.419 16.148,-3.146 0.419,-0.629 -0.671,-3.229 c -0.209,-0.168 -0.377,-0.252 -0.629,-0.42 m 3.899,21.265 -16.315,2.265 c -0.168,0.251 -0.294,0.377 -0.462,0.587 l 0.42,3.02 c 0.251,0.168 0.377,0.293 0.587,0.461 l 16.315,-2.013 c 0.168,-0.252 0.294,-0.378 0.462,-0.587 l -0.42,-3.272 c -0.209,-0.167 -0.335,-0.251 -0.587,-0.461 m 2.392,21.516 -16.441,1.133 c -0.21,0.209 -0.294,0.335 -0.504,0.587 l 0.21,3.02 c 0.21,0.209 0.336,0.293 0.545,0.503 l 16.442,-0.881 c 0.209,-0.209 0.293,-0.335 0.503,-0.587 l -0.21,-3.271 c 0,0 -0.335,-0.294 -0.545,-0.504 m 1.426,22.104 -0.545,-0.545 h -16.484 c 0,0 -0.335,0.293 -0.545,0.503 v 3.02 l 0.545,0.545 16.442,0.294 0.545,-0.546 v -3.313 z m -0.881,24.956 0.252,-3.272 c 0,0 -0.294,-0.336 -0.503,-0.545 l -16.442,-1.175 c -0.209,0.21 -0.335,0.294 -0.587,0.504 l -0.21,3.02 c 0.21,0.209 0.294,0.335 0.504,0.587 l 16.399,1.426 c 0.21,-0.21 0.336,-0.294 0.587,-0.504 z m -2.39,21.516 0.503,-3.272 c -0.168,-0.209 -0.252,-0.335 -0.462,-0.587 l -16.315,-2.307 c -0.252,0.168 -0.378,0.294 -0.587,0.462 l -0.42,3.02 c 0.168,0.251 0.252,0.377 0.462,0.587 l 16.231,2.558 c 0.252,-0.168 0.378,-0.293 0.629,-0.461 z m -3.86,21.307 0.713,-3.23 c -0.167,-0.21 -0.251,-0.377 -0.419,-0.629 l -16.106,-3.439 -0.629,0.419 -0.629,2.978 0.419,0.629 16.022,3.691 z m -5.326,20.971 0.923,-3.146 c -0.126,-0.252 -0.21,-0.378 -0.378,-0.671 l -15.854,-4.572 c -0.252,0.126 -0.42,0.21 -0.671,0.378 l -0.839,2.894 c 0.126,0.251 0.21,0.419 0.377,0.671 l 15.729,4.781 c 0.251,-0.126 0.419,-0.21 0.671,-0.377 z m -6.836,20.551 1.133,-3.103 c -0.126,-0.252 -0.168,-0.42 -0.336,-0.671 l -15.477,-5.663 -0.671,0.336 -1.048,2.852 c 0.126,0.252 0.209,0.419 0.293,0.671 l 15.351,5.872 c 0.252,-0.126 0.42,-0.21 0.671,-0.294 z m -8.18,20.049 1.384,-3.02 c -0.084,-0.252 -0.168,-0.42 -0.251,-0.713 l -15.058,-6.711 a 5,5 0 0 1 -0.713,0.252 l -1.216,2.768 c 0.084,0.252 0.168,0.419 0.252,0.713 l 14.931,6.962 c 0.294,-0.084 0.419,-0.167 0.713,-0.251 z m -9.604,19.377 1.551,-2.894 c -0.083,-0.252 -0.125,-0.419 -0.209,-0.713 l -14.554,-7.759 c -0.294,0.084 -0.42,0.126 -0.713,0.209 l -1.426,2.685 c 0.084,0.293 0.126,0.419 0.21,0.713 l 14.386,7.969 c 0.293,-0.084 0.461,-0.126 0.713,-0.21 z m -10.947,18.706 1.761,-2.768 a 6,6 0 0 0 -0.167,-0.713 l -13.967,-8.766 c -0.294,0.084 -0.461,0.084 -0.755,0.168 l -1.594,2.558 c 0.084,0.294 0.084,0.462 0.168,0.713 l 13.799,8.934 c 0.294,-0.042 0.461,-0.084 0.755,-0.168 z m -12.204,17.91 1.971,-2.643 c -0.042,-0.251 -0.084,-0.419 -0.126,-0.755 l -13.337,-9.688 c -0.294,0.042 -0.462,0.083 -0.755,0.125 l -1.762,2.433 c 0.042,0.294 0.084,0.461 0.126,0.755 l 13.128,9.898 c 0.293,-0.042 0.461,-0.083 0.755,-0.125 m -13.422,16.986 2.139,-2.516 c 0,-0.252 0,-0.42 -0.084,-0.755 l -12.624,-10.612 c -0.294,0 -0.462,0 -0.755,0.084 l -1.93,2.307 c 0,0.294 0,0.461 0.042,0.755 l 12.415,10.779 c 0.294,0 0.462,0 0.755,-0.042 z m -14.555,16.022 2.307,-2.349 v -0.755 l -11.828,-11.45 h -0.755 l -2.097,2.181 v 0.755 l 11.66,11.618 h 0.755 z m -15.644,14.932 2.475,-2.181 v -0.755 L 737.7,653.586 h -0.755 l -2.265,2.013 c 0,0.293 0,0.461 -0.041,0.755 l 10.821,12.415 c 0.293,0 0.461,0 0.755,0.042 z m -27.221,-0.126 c 0,0.293 -0.042,0.461 -0.084,0.755 l 9.899,13.128 c 0.293,0 0.461,0.042 0.755,0.084 l 2.6,-2.014 c 0,-0.251 0.042,-0.419 0.084,-0.755 l -10.108,-13.002 c -0.294,0 -0.462,-0.042 -0.755,-0.084 z m -14.093,10.234 -2.516,1.677 a 5,5 0 0 1 -0.168,0.755 l 8.976,13.799 c 0.293,0.042 0.461,0.084 0.755,0.168 l 2.768,-1.804 c 0.042,-0.251 0.084,-0.419 0.126,-0.713 l -9.186,-13.673 c -0.293,-0.042 -0.461,-0.084 -0.755,-0.126 z m -17.237,10.905 -2.643,1.51 c -0.084,0.293 -0.126,0.461 -0.209,0.713 l 7.969,14.386 c 0.293,0.084 0.461,0.126 0.713,0.21 l 2.852,-1.636 c 0.084,-0.252 0.126,-0.42 0.209,-0.713 l -8.22,-14.303 c -0.294,-0.083 -0.462,-0.125 -0.713,-0.209 z m -20.719,11.03 c -0.084,0.294 -0.168,0.42 -0.252,0.713 l 6.963,14.89 c 0.293,0.084 0.419,0.168 0.713,0.252 l 2.978,-1.426 c 0.083,-0.252 0.126,-0.42 0.251,-0.713 l -7.214,-14.806 c -0.293,-0.084 -0.419,-0.168 -0.713,-0.252 z m -15.897,7.089 -2.81,1.132 c -0.126,0.252 -0.168,0.42 -0.294,0.671 l 5.914,15.351 c 0.252,0.126 0.42,0.168 0.713,0.294 l 3.062,-1.217 c 0.126,-0.251 0.168,-0.419 0.293,-0.671 l -6.165,-15.309 c -0.252,-0.125 -0.419,-0.167 -0.713,-0.293 z m -19.168,7.088 -2.894,0.923 -0.336,0.671 4.824,15.728 0.671,0.336 3.145,-1.007 c 0.126,-0.252 0.21,-0.377 0.336,-0.671 l -5.075,-15.686 -0.671,-0.336 z m -15.351,22.775 a 5,5 0 0 1 0.378,-0.63 l -3.985,-15.98 c -0.251,-0.167 -0.377,-0.251 -0.629,-0.377 l -2.936,0.713 a 5,5 0 0 0 -0.377,0.629 l 3.691,16.022 c 0.251,0.168 0.377,0.252 0.629,0.378 l 3.187,-0.755 z m -24.199,-12.667 -2.978,0.545 -0.42,0.629 2.601,16.232 c 0.251,0.168 0.377,0.252 0.629,0.461 l 3.271,-0.545 c 0.168,-0.21 0.252,-0.377 0.42,-0.629 l -2.852,-16.232 -0.63,-0.419 z m -23.238,3.271 c -0.168,0.21 -0.293,0.336 -0.461,0.588 l 1.426,16.399 c 0.21,0.21 0.335,0.294 0.587,0.503 l 3.272,-0.335 c 0.167,-0.21 0.293,-0.336 0.461,-0.587 l -1.72,-16.4 c -0.209,-0.168 -0.377,-0.293 -0.587,-0.461 l -3.02,0.335 z"
     id="path2" />
  <path
     fill="#000000"
     d="M 539.9,0 C 298.481,0 102.736,195.702 102.736,437.164 c 0,241.462 195.745,437.121 437.164,437.121 241.42,0 437.122,-195.702 437.122,-437.121 C 977.022,195.744 781.32,0 539.9,0 m 300.432,737.596 c -39.006,39.006 -84.471,69.666 -135.054,91.056 -52.386,22.146 -108.001,33.386 -165.378,33.386 -57.377,0 -113.034,-11.24 -165.378,-33.386 -50.624,-21.39 -96.048,-52.05 -135.054,-91.056 -39.006,-39.006 -69.666,-84.472 -91.099,-135.054 -22.145,-52.386 -33.386,-108.043 -33.386,-165.378 0,-57.335 11.241,-113.035 33.386,-165.379 21.433,-50.624 52.051,-96.047 91.099,-135.096 39.006,-39.006 84.43,-69.666 135.054,-91.056 52.344,-22.146 108.001,-33.386 165.378,-33.386 57.377,0 112.992,11.24 165.378,33.386 50.583,21.39 96.048,52.05 135.054,91.056 39.007,39.049 69.666,84.472 91.057,135.096 22.145,52.344 33.386,108.002 33.386,165.379 0,57.377 -11.241,112.992 -33.386,165.378 -21.391,50.582 -52.05,96.005 -91.057,135.054"
     id="path3" />
  <path
     fill="#000000"
     d="m 342.897,708.446 -1.258,0.126 -14.512,18.454 -1.259,0.168 -7.088,-5.578 -0.881,-1.846 0.336,-29.611 -0.881,-1.803 -4.236,-3.356 -1.3,0.126 -5.579,7.13 -0.251,19.294 -0.546,0.713 c -6.752,-3.104 -15.77,-1.846 -21.81,5.83 -7.801,9.94 -4.613,20.467 5.285,28.269 l 23.446,18.412 1.258,-0.126 37.958,-48.233 -0.168,-1.3 z m -32.505,39.887 -1.259,0.126 -13.505,-10.612 c -4.236,-3.313 -5.914,-7.046 -2.055,-11.953 3.9,-4.949 7.843,-4.152 12.121,-0.797 l 13.464,10.611 0.167,1.259 z m -6.963,-73.021 -28.269,-31.625 -1.258,-0.084 -6.711,5.998 -0.084,1.3 19.839,22.188 -0.084,1.3 -10.779,9.605 -1.258,-0.084 -18.623,-20.846 -1.3,-0.083 -6.711,5.997 -0.083,1.301 18.622,20.845 -0.084,1.3 -9.395,8.388 -1.3,-0.083 -19.839,-22.188 -1.258,-0.084 -6.711,5.998 -0.084,1.3 28.227,31.625 1.3,0.084 45.759,-40.894 z m -36.614,-42.362 -5.621,-9.269 -1.258,-0.294 -35.483,21.558 -0.461,-0.755 22.816,-42.403 -0.167,-2.013 -6.543,-10.78 -1.259,-0.335 -52.428,31.918 -0.335,1.216 5.662,9.27 1.216,0.293 35.484,-21.558 0.461,0.755 -22.817,42.403 0.168,2.014 6.585,10.779 1.216,0.335 52.47,-31.876 z m -75.749,-38 c 11.66,-4.362 12.666,-15.267 9.814,-27.807 -2.684,-12.499 -2.516,-16.4 3.565,-18.707 5.075,-1.887 9.144,1.217 12.08,9.018 3.775,10.108 1.761,14.722 -4.236,16.987 l -0.546,1.174 3.817,10.15 1.174,0.503 c 11.073,-4.152 16.568,-14.889 10.234,-31.792 -6.668,-17.742 -17.741,-21.307 -26.927,-17.867 -11.953,4.487 -13.253,15.602 -10.695,28.101 2.852,12.457 2.265,16.525 -2.726,18.413 -3.397,1.258 -6.837,-0.252 -9.731,-7.928 -3.439,-9.227 -1.887,-12.792 3.146,-14.679 l 0.545,-1.175 -3.816,-10.15 -1.133,-0.503 c -10.15,3.775 -15.183,13.505 -9.185,29.485 5.956,15.938 16.148,19.965 24.62,16.777 m -22.188,-63.249 c 12.247,-2.265 15.183,-12.834 14.554,-25.626 -0.419,-12.793 0.42,-16.61 6.837,-17.784 5.327,-1.007 8.766,2.768 10.276,10.947 1.971,10.653 -0.839,14.848 -7.172,15.98 l -0.713,1.09 1.971,10.612 1.048,0.755 c 11.618,-2.139 18.958,-11.786 15.687,-29.527 -3.439,-18.623 -13.715,-24.075 -23.404,-22.272 -12.499,2.307 -15.77,13.002 -15.435,25.753 0.587,12.75 -0.671,16.651 -5.914,17.615 -3.565,0.672 -6.71,-1.426 -8.178,-9.478 -1.804,-9.689 0.377,-12.919 5.704,-13.925 l 0.713,-1.049 -1.971,-10.653 -1.049,-0.713 c -10.653,1.971 -17.322,10.653 -14.218,27.388 3.103,16.777 12.414,22.523 21.264,20.887 m 36.365,-70.253 -0.671,-42.403 -0.923,-0.881 -9.018,0.126 -0.922,0.922 0.503,29.779 -0.881,0.923 -14.47,0.21 -0.881,-0.881 -0.461,-27.975 -0.923,-0.881 -9.017,0.167 -0.923,0.881 0.461,27.976 -0.88,0.922 -12.625,0.21 -0.923,-0.881 -0.461,-29.779 -0.923,-0.88 -9.059,0.125 -0.881,0.923 0.713,42.446 0.923,0.881 61.361,-1.007 z m -0.335,-55.447 1.049,-0.755 5.872,-40.181 -0.755,-1.049 -8.934,-1.3 -1.048,0.755 -4.027,27.724 -1.048,0.755 -49.996,-7.298 -1.048,0.755 -1.552,10.695 0.755,1.049 z m -1.804,-48.695 8.598,2.768 1.132,-0.587 2.517,-7.718 -0.587,-1.132 -9.773,-7.885 -0.335,-2.014 6.962,-21.474 1.384,-1.426 12.583,-0.713 1.132,-0.587 2.475,-7.718 -0.587,-1.132 -8.599,-2.768 -56.16,3.691 -1.133,0.545 -3.607,11.199 0.588,1.132 z m -26.592,-38 23.111,-1.049 0.545,1.133 -4.698,14.596 -1.132,0.587 -18.119,-14.386 z m 55.867,-19.21 1.258,-0.419 19.671,-37.538 -0.377,-1.217 -7.969,-4.194 -1.217,0.378 -13.841,26.381 -1.216,0.378 -12.792,-6.711 -0.378,-1.216 13.002,-24.788 -0.377,-1.217 -8.011,-4.194 -1.216,0.378 -13.002,24.788 -1.217,0.377 -11.198,-5.872 -0.378,-1.216 13.841,-26.382 -0.377,-1.216 -8.011,-4.194 -1.217,0.377 -19.713,37.58 0.378,1.217 z m 27.011,-49.366 1.259,-0.167 6.627,-8.557 -0.168,-1.258 -18.539,-14.386 -0.167,-1.258 5.536,-7.131 1.845,-0.88 29.57,0.125 1.845,-0.88 3.314,-4.278 -0.168,-1.301 -7.13,-5.494 -19.294,-0.168 -0.713,-0.545 c 3.062,-6.753 1.72,-15.77 -5.998,-21.768 -9.982,-7.717 -20.509,-4.446 -28.227,5.536 l -18.245,23.53 0.126,1.258 z m -21.851,-55.783 c 3.313,-4.278 7.004,-5.956 11.953,-2.139 4.991,3.859 4.194,7.801 0.881,12.079 l -10.528,13.548 -1.258,0.168 -11.408,-8.85 -0.168,-1.259 z m 79.984,-9.395 8.598,-6.585 0.168,-1.3 -14.344,-18.538 0.168,-1.301 13.547,-10.443 c 10.024,-7.76 13.296,-18.245 5.578,-28.269 -7.717,-9.983 -18.706,-9.479 -28.73,-1.762 l -23.572,18.203 -0.167,1.258 37.496,48.569 z m -13.295,-36.448 -8.85,-11.45 0.168,-1.258 13.589,-10.486 c 4.278,-3.271 8.304,-3.984 12.121,0.923 3.859,5.033 2.097,8.64 -2.181,11.954 l -13.589,10.485 z m 85.519,-10.485 c 17.028,-8.598 21.39,-25.837 12.792,-42.823 -8.556,-17.029 -24.997,-23.782 -42.026,-15.225 -16.987,8.556 -21.349,25.794 -12.792,42.823 8.598,16.986 25.039,23.781 42.026,15.225 M 365.42,90.259 c 10.444,-5.284 20.175,-0.084 25.837,11.199 5.704,11.282 4.11,22.187 -6.376,27.472 -10.485,5.285 -20.174,0 -25.836,-11.24 -5.704,-11.283 -4.11,-22.188 6.375,-27.431 m 61.991,30.786 38.922,-11.618 0.629,-1.132 -2.6,-8.641 -1.132,-0.629 -26.802,8.011 -1.132,-0.587 -14.47,-48.443 -1.091,-0.629 -10.401,3.103 -0.587,1.133 17.531,58.803 z M 477.7,84.01 l 3.481,22.271 1.048,0.755 10.696,-1.677 0.755,-1.007 -3.482,-22.313 13.212,-32.212 -1.384,-8.934 -1.048,-0.755 -6.25,1.007 -1.636,1.133 -10.485,26.339 -1.804,0.294 -18.035,-21.852 -1.929,-0.629 -6.25,0.964 -0.755,1.049 1.427,8.934 z m 57.797,-34.309 0.881,0.923 -0.839,50.54 0.922,0.923 10.822,0.168 0.922,-0.881 0.797,-50.54 0.923,-0.923 18.035,0.294 0.923,-0.881 0.168,-9.018 -0.881,-0.922 -50.541,-0.797 -0.922,0.88 -0.168,9.018 0.881,0.923 z m 83.506,61.11 1.006,-0.755 1.552,-8.892 -0.713,-1.048 -29.359,-5.075 -0.755,-1.049 2.474,-14.218 1.007,-0.713 27.598,4.739 1.049,-0.755 1.509,-8.891 -0.713,-1.049 -27.597,-4.739 -0.714,-1.049 2.14,-12.457 1.048,-0.713 29.36,5.033 1.048,-0.713 1.51,-8.892 -0.713,-1.048 -41.816,-7.214 -1.049,0.755 -10.443,60.48 0.754,1.049 z m 37.455,13.128 c 13.589,4.949 25.375,1.552 31.414,-9.689 l -0.545,-1.174 -10.192,-3.691 -1.132,0.545 c -3.943,5.495 -9.06,6.292 -15.812,3.817 -11.87,-4.32 -13.883,-14.638 -9.563,-26.507 4.32,-11.869 12.499,-18.497 24.368,-14.177 6.795,2.475 10.108,6.543 9.94,12.289 l 0.546,1.133 10.192,3.732 1.132,-0.545 c 2.307,-11.869 -4.446,-21.81 -18.077,-26.801 -18.664,-6.794 -33.428,2.139 -39.971,20.049 -6.501,17.867 -0.965,34.224 17.7,41.019 m 34.477,13.086 9.269,5.578 1.258,-0.335 13.002,-21.642 1.259,-0.336 20.887,12.583 0.293,1.216 -13.002,21.684 0.294,1.216 9.269,5.579 1.258,-0.294 31.625,-52.595 -0.336,-1.259 -9.269,-5.578 -1.258,0.294 -12.08,20.132 -1.216,0.294 -20.887,-12.541 -0.336,-1.217 12.08,-20.132 -0.294,-1.258 -9.269,-5.578 -1.258,0.335 -31.625,52.596 z m 54.817,34.56 8.011,7.298 1.3,-0.084 27.891,-30.743 0.672,0.587 -9.857,47.143 0.755,1.887 9.353,8.473 1.3,-0.042 41.23,-45.466 -0.084,-1.3 -8.011,-7.256 -1.3,0.042 -27.892,30.786 -0.671,-0.629 9.856,-47.143 -0.755,-1.888 -9.353,-8.472 -1.258,0.084 -41.229,45.465 z m 48.15,47.06 6.921,8.304 1.258,0.126 47.185,-39.3 0.126,-1.258 -6.962,-8.347 -1.259,-0.125 -47.185,39.341 z m 30.492,43.2 c 7.675,12.247 19.042,16.819 30.702,11.66 l 0.293,-1.258 -5.746,-9.186 -1.258,-0.293 c -6.459,1.929 -10.989,-0.545 -14.848,-6.669 -6.711,-10.695 -1.929,-20.09 8.766,-26.801 10.737,-6.711 21.265,-6.921 27.976,3.775 3.816,6.123 3.942,11.408 0.293,15.812 l -0.293,1.216 5.746,9.186 1.258,0.293 c 9.101,-7.927 9.898,-19.922 2.139,-32.253 -10.528,-16.819 -27.682,-18.874 -43.83,-8.724 -16.105,10.108 -21.768,26.423 -11.198,43.242 m 28.227,54.777 3.733,10.191 1.133,0.546 57.628,-21.181 0.546,-1.174 -3.733,-10.15 -1.175,-0.546 -57.586,21.181 z m 9.521,25.123 2.265,10.569 1.049,0.713 40.642,-8.682 0.168,0.881 -35.525,32.505 -0.504,1.972 2.643,12.373 1.09,0.671 60.02,-12.793 0.713,-1.09 -2.265,-10.57 -1.091,-0.713 -40.6,8.682 -0.21,-0.88 35.525,-32.506 0.504,-1.971 -2.601,-12.373 -1.09,-0.671 -60.02,12.792 z m 58.048,96.97 -0.881,0.923 0.252,10.863 0.923,0.881 c 10.821,-0.294 18.79,-7.759 18.37,-24.83 -0.42,-17.071 -8.724,-24.201 -17.741,-23.949 -12.457,0.294 -16.987,10.234 -18.413,22.985 -1.594,12.708 -3.02,16.357 -9.521,16.483 -5.41,0.126 -8.221,-4.111 -8.43,-12.415 -0.252,-10.821 3.187,-14.554 9.563,-14.68 l 0.88,-0.923 -0.251,-10.821 -0.923,-0.881 c -11.828,0.252 -20.552,8.599 -20.132,26.634 0.461,18.958 9.772,25.962 19.587,25.752 12.708,-0.335 17.615,-10.359 19.335,-23.068 1.384,-12.666 3.313,-16.315 8.598,-16.441 3.649,-0.084 6.417,2.474 6.585,10.653 0.252,9.856 -2.391,12.709 -7.801,12.834 m 7.676,28.899 -1.049,0.755 -2.6,17.867 -1.007,0.755 -50.037,-7.298 -1.006,0.755 -1.552,10.737 0.755,1.007 49.995,7.298 0.797,1.048 -2.601,17.826 0.755,1.048 8.934,1.3 1.007,-0.754 7.298,-50.038 -0.755,-1.006 z m -62.411,52.847 -1.132,0.629 -2.852,10.444 0.629,1.132 59.18,16.274 1.091,-0.63 2.894,-10.443 -0.629,-1.133 z m 43.2,41.271 -1.174,0.503 -6.921,16.651 -1.174,0.504 -46.682,-19.378 -1.216,0.462 -4.152,10.024 0.503,1.174 46.682,19.378 0.503,1.174 -6.92,16.693 0.461,1.175 8.346,3.439 1.175,-0.462 19.377,-46.681 -0.461,-1.175 z m -52.678,48.401 c -13.883,-8.933 -26.005,-6.333 -34.938,7.55 -8.934,13.925 -6.292,26.004 7.591,34.938 l 31.876,20.551 1.259,-0.293 5.83,-9.102 -0.252,-1.258 -31.876,-20.51 c -7.592,-4.865 -10.192,-10.863 -5.327,-18.454 4.907,-7.592 11.408,-7.676 19,-2.81 l 31.876,20.509 1.258,-0.251 5.872,-9.102 -0.293,-1.258 z m -13.842,72.141 -1.258,0.042 -12.289,13.212 -1.3,0.042 -36.993,-34.393 -1.301,0.042 -7.381,7.927 0.042,1.258 37.034,34.435 0.042,1.258 -12.289,13.254 0.042,1.258 6.627,6.166 1.3,-0.042 34.393,-37.035 -0.042,-1.3 z m -81.829,7.969 -33.595,25.878 -0.168,1.259 5.536,7.172 1.259,0.167 23.571,-18.202 1.3,0.167 8.808,11.451 -0.168,1.258 -22.145,17.07 -0.168,1.301 5.495,7.13 1.258,0.167 22.187,-17.07 1.259,0.126 7.717,10.024 -0.168,1.258 -23.613,18.203 -0.126,1.258 5.494,7.131 1.259,0.167 33.595,-25.878 0.168,-1.258 -37.454,-48.611 z m -259.286,79.523 -29.528,-3.985 -1.006,0.755 -8.179,60.816 0.755,1.049 10.737,1.426 1.007,-0.755 3.145,-23.278 1.007,-0.755 8.976,1.174 1.635,1.175 14.764,25.668 1.678,1.133 5.368,0.713 1.007,-0.797 1.216,-8.934 -9.605,-16.777 0.126,-0.88 c 7.382,-0.755 14.554,-6.418 15.854,-16.106 1.678,-12.499 -6.417,-19.965 -18.957,-21.642 m 6.417,19.964 c -0.839,6.249 -4.656,7.592 -10.024,6.837 l -16.987,-2.265 -0.797,-1.007 1.929,-14.344 1.007,-0.755 17.029,2.265 c 5.368,0.755 8.682,3.103 7.843,9.269 m 56.749,-18.622 -29.779,1.51 -0.839,0.922 3.061,61.32 0.965,0.839 10.821,-0.546 0.839,-0.922 -1.174,-23.446 0.881,-0.965 17.112,-0.839 c 12.625,-0.629 21.307,-7.423 20.677,-20.048 -0.629,-12.583 -9.94,-18.455 -22.564,-17.825 m 1.342,27.052 -17.113,0.839 -0.964,-0.839 -0.713,-14.428 0.838,-0.965 17.155,-0.838 c 5.41,-0.294 9.101,1.426 9.395,7.675 0.335,6.291 -3.188,8.263 -8.598,8.556 m 41.857,-33.008 -10.654,2.013 -0.713,1.049 11.283,60.312 1.09,0.714 10.612,-1.972 0.755,-1.048 -11.325,-60.355 z m 75.203,-0.084 a 9.093,9.093 0 0 0 -9.102,9.101 9.094,9.094 0 0 0 9.102,9.102 9.093,9.093 0 0 0 9.101,-9.102 9.09,9.09 0 0 0 -9.101,-9.101 m -285.418,0 a 9.093,9.093 0 0 0 -9.102,9.101 9.094,9.094 0 0 0 9.102,9.102 9.093,9.093 0 0 0 9.101,-9.102 9.09,9.09 0 0 0 -9.101,-9.101 m 94.203,-416.361 c -2.223,-1.635 -5.83,-1.174 -7.046,1.301 0,0 1.09,0.839 1.09,2.684 0,1.762 -1.468,3.062 -3.061,3.062 -1.594,0 -3.02,-1.175 -3.02,-3.062 0,-2.852 2.684,-3.439 2.684,-3.439 -1.51,-4.614 -6.753,-3.649 -7.801,-2.601 -1.007,-3.02 -3.901,-3.984 -3.901,-3.984 0,0 -2.852,0.923 -3.9,3.984 -1.049,-1.048 -6.25,-2.013 -7.802,2.601 0,0 2.685,0.587 2.685,3.439 0,1.845 -1.552,3.062 -3.02,3.062 -1.594,0 -3.062,-1.3 -3.062,-3.062 0,-1.845 1.091,-2.684 1.091,-2.684 -1.217,-2.475 -4.824,-2.936 -7.047,-1.301 -2.013,-1.929 -6.375,-1.929 -7.507,0.546 5.578,1.971 9.604,7.298 11.492,13.17 h 34.141 c 1.887,-5.872 5.914,-11.199 11.492,-13.17 -1.133,-2.517 -5.494,-2.517 -7.508,-0.546 m -26.089,-22.313 c -1.132,-2.516 -5.494,-2.516 -7.508,-0.545 -2.222,-1.636 -5.829,-1.174 -7.046,1.3 0,0 1.091,0.839 1.091,2.684 0,1.762 -1.468,3.062 -3.062,3.062 -1.51,0 -3.02,-1.174 -3.02,-3.062 0,-2.852 2.684,-3.439 2.684,-3.439 -1.51,-4.614 -6.752,-3.649 -7.801,-2.6 -1.007,-3.02 -3.901,-3.985 -3.901,-3.985 0,0 -2.852,0.923 -3.9,3.985 -1.049,-1.049 -6.25,-2.014 -7.801,2.6 0,0 2.684,0.587 2.684,3.439 0,1.846 -1.552,3.062 -3.02,3.062 -1.594,0 -3.062,-1.3 -3.062,-3.062 0,-1.845 1.091,-2.684 1.091,-2.684 -1.217,-2.474 -4.824,-2.936 -7.047,-1.3 -2.013,-1.929 -6.375,-1.929 -7.507,0.545 5.578,1.971 9.605,7.298 11.492,13.17 h 34.141 c 1.887,-5.872 5.914,-11.199 11.492,-13.17 m 59.684,-0.587 c -2.223,-1.636 -5.83,-1.174 -7.046,1.3 0,0 1.09,0.839 1.09,2.684 0,1.762 -1.468,3.062 -3.062,3.062 -1.509,0 -3.019,-1.174 -3.019,-3.062 0,-2.852 2.684,-3.439 2.684,-3.439 -1.51,-4.613 -6.753,-3.649 -7.801,-2.6 -1.007,-3.02 -3.901,-3.985 -3.901,-3.985 0,0 -2.852,0.923 -3.901,3.985 -1.048,-1.049 -6.249,-2.013 -7.801,2.6 0,0 2.684,0.587 2.684,3.439 0,1.846 -1.551,3.062 -3.019,3.062 -1.594,0 -3.062,-1.3 -3.062,-3.062 0,-1.845 1.09,-2.684 1.09,-2.684 -1.216,-2.474 -4.823,-2.936 -7.046,-1.3 -2.013,-1.929 -6.375,-1.929 -7.508,0.545 5.579,1.971 9.605,7.298 11.493,13.17 h 34.141 c 1.887,-5.872 5.913,-11.199 11.492,-13.17 -1.133,-2.516 -5.495,-2.516 -7.508,-0.545 m 31.918,94.664 v -31.08 h -34.015 v 31.08 c -11.492,5.913 -19.503,17.615 -20.216,31.205 h -2.307 v -2.517 l -0.881,-0.881 h -0.209 a 2.525,2.525 0 0 0 -2.517,2.517 v 5.62 a 2.525,2.525 0 0 0 2.517,2.517 h 0.209 l 0.881,-0.881 v -2.559 h 2.307 c 0.671,13.59 8.724,25.333 20.216,31.247 v 95.712 h 34.015 v -95.712 c 12.038,-6.165 20.3,-18.706 20.3,-33.134 0,-14.428 -8.262,-26.969 -20.3,-33.134 m -30.492,-27.556 h 27.011 v 4.781 h -4.53 v 2.181 h 4.53 v 4.991 h -7.465 v 2.181 h 7.465 v 4.991 h -4.53 v 2.181 h 4.53 v 4.656 A 37,37 0 0 0 539.9,416.318 c -4.782,0 -9.311,0.923 -13.506,2.559 z m -3.523,31.498 c 0.587,-0.377 1.175,-0.671 1.762,-1.006 0.587,-0.252 1.174,-0.546 1.761,-0.797 a 33.7,33.7 0 0 1 13.506,-2.811 c 4.823,0 9.353,1.007 13.505,2.811 0.587,0.251 1.175,0.545 1.762,0.838 0.587,0.294 1.174,0.63 1.719,0.965 10.067,5.872 16.819,16.735 16.819,29.192 0,12.457 -6.752,23.32 -16.819,29.192 -0.545,0.335 -1.132,0.629 -1.719,0.922 -0.587,0.293 -1.175,0.588 -1.762,0.839 a 33.2,33.2 0 0 1 -13.505,2.852 33.2,33.2 0 0 1 -13.506,-2.852 c -0.587,-0.209 -1.174,-0.503 -1.761,-0.797 -0.587,-0.293 -1.175,-0.629 -1.762,-0.964 -10.024,-5.872 -16.777,-16.777 -16.777,-29.192 0,-12.415 6.753,-23.32 16.777,-29.192 m 3.523,63.92 a 37,37 0 0 0 13.506,2.559 c 4.194,0 8.262,-0.713 12.037,-2.014 h 1.468 v 4.991 h -4.53 v 2.181 h 4.53 V 501 h -7.465 v 2.181 h 7.465 v 4.991 h -4.53 v 2.181 h 4.53 v 4.991 h -4.53 v 2.181 h 4.53 v 4.991 h -7.465 v 2.181 h 7.465 v 4.949 h -4.53 v 2.181 h 4.53 v 4.991 h -4.53 v 2.181 h 4.53 v 4.991 h -7.465 v 2.181 h 7.465 v 4.992 h -4.53 v 2.181 h 4.53 v 4.991 h -4.53 v 2.181 h 4.53 v 4.949 h -7.465 v 2.181 h 7.465 v 4.991 h -4.53 v 2.181 h 4.53 v 4.152 h -27.011 z"
     id="path4" />
  <path
     fill="#000000"
     d="m 524.213,453.605 v 13.463 l 0.419,0.462 0.21,0.209 0.881,0.839 0.629,0.629 h 13.547 v 14.387 c 4.866,0 9.437,-1.175 13.506,-3.23 0.587,-0.294 1.174,-0.587 1.761,-0.965 0.588,-0.335 1.175,-0.671 1.72,-1.09 7.843,-5.411 13.002,-14.428 13.002,-24.704 H 555.46 v -13.506 l -1.174,-1.174 -0.336,-0.293 -0.545,-0.588 -0.084,-0.084 h -13.422 v -14.386 a 29.8,29.8 0 0 0 -13.505,3.23 c -0.587,0.293 -1.174,0.587 -1.762,0.964 -0.587,0.336 -1.216,0.713 -1.761,1.133 -7.843,5.41 -13.002,14.47 -13.002,24.704 z m 29.066,-8.263 h -4.53 v 2.181 h 4.53 v 4.991 h -7.508 v 2.181 h 7.508 v 4.992 h -4.53 v 2.181 h 4.53 v 4.32 c -0.336,0.335 -0.545,0.503 -0.881,0.838 h -25.165 l -0.839,-0.838 v -25.166 c 0.336,-0.335 0.503,-0.545 0.839,-0.881 h 25.165 l 0.881,0.881 z"
     id="path5" />
  <path
     fill="#000000"
     d="m 537.089,452.305 v -0.168 l 2.014,-1.845 0.168,-0.294 v -1.51 l -0.168,-0.168 h -6.334 l -0.167,0.168 v 1.51 l 0.167,0.168 h 3.691 v 0.126 l -2.139,2.139 v 1.384 l 0.126,0.167 h 0.797 c 0,0 0.126,-0.125 0.21,-0.167 0.167,-0.084 0.419,-0.168 0.713,-0.168 0.922,0 1.552,0.629 1.552,1.845 0,1.091 -0.629,1.846 -1.846,1.846 -1.09,0 -1.552,-0.629 -1.552,-1.216 l -0.167,-0.168 h -1.846 l -0.168,0.168 c 0,1.509 1.259,3.061 3.733,3.061 2.643,0 4.027,-1.677 4.027,-3.691 v -1.887 h -0.504 c -0.545,-0.839 -1.426,-1.3 -2.307,-1.3 m -0.921,76.796 c 2.642,0 3.859,-1.72 3.859,-3.356 0,-1.426 -0.797,-2.139 -1.385,-2.474 v -0.126 c 0.462,-0.293 1.049,-0.923 1.049,-2.139 0,-1.552 -1.216,-2.936 -3.523,-2.936 -2.307,0 -3.565,1.384 -3.565,2.936 0,1.216 0.629,1.846 1.09,2.139 v 0.126 c -0.629,0.335 -1.426,1.048 -1.426,2.474 0,1.636 1.259,3.356 3.901,3.356 m 0,-9.185 c 1.048,0 1.384,0.796 1.384,1.216 0,0.797 -0.461,1.384 -1.384,1.384 -0.923,0 -1.426,-0.587 -1.426,-1.384 0,-0.42 0.335,-1.216 1.426,-1.216 m 0,4.278 c 1.09,0 1.678,0.629 1.678,1.551 0,0.756 -0.462,1.51 -1.678,1.51 -1.216,0 -1.72,-0.754 -1.72,-1.51 0,-0.922 0.587,-1.551 1.72,-1.551 m -0.546,-20.258 c 0.587,0 1.09,-0.126 1.384,-0.294 0.167,-0.084 0.335,-0.21 0.461,-0.336 h 0.168 c 0,0.797 -0.168,2.475 -1.72,2.475 -0.797,0 -1.048,-0.294 -1.216,-0.797 l -0.168,-0.126 h -1.845 l -0.168,0.126 c 0.126,1.552 1.216,2.601 3.397,2.601 2.936,0 4.027,-1.972 4.027,-5.788 0,-3.23 -1.217,-5.201 -3.859,-5.201 -2.307,0 -3.859,1.384 -3.859,3.691 0,2.139 1.51,3.649 3.398,3.649 m 0.293,-5.495 c 0.923,0 1.72,0.42 1.72,1.846 0,1.09 -0.462,1.803 -1.72,1.803 -0.923,0 -1.552,-0.587 -1.552,-1.803 0,-1.217 0.629,-1.846 1.552,-1.846 m -2.014,50.289 v 1.552 l 0.168,0.126 h 1.216 l 0.168,-0.126 4.32,-8.724 v -1.678 l -0.126,-0.168 h -6.836 l -0.126,0.168 v 1.552 l 0.126,0.126 h 4.655 v 0.168 z m 2.812,15.854 c -0.713,0 -1.174,0.126 -1.468,0.294 -0.167,0.083 -0.335,0.209 -0.419,0.335 H 534.7 c 0,-0.797 0.126,-2.474 1.678,-2.474 0.922,0 1.216,0.293 1.384,0.755 l 0.168,0.167 h 1.845 l 0.168,-0.167 c -0.168,-1.51 -1.384,-2.559 -3.565,-2.559 -2.768,0 -4.027,2.139 -4.027,5.494 0,3.649 1.091,5.495 4.027,5.495 2.181,0 3.733,-1.552 3.733,-3.817 0,-2.139 -1.552,-3.523 -3.398,-3.523 m -0.335,5.494 c -1.217,0 -1.678,-0.713 -1.678,-1.845 0,-1.132 0.461,-1.804 1.678,-1.804 1.09,0 1.552,0.755 1.552,1.804 0,1.132 -0.63,1.845 -1.552,1.845 m 0.335,-165.965 c -0.713,0 -1.174,0.126 -1.468,0.294 -0.167,0.126 -0.335,0.209 -0.419,0.335 H 534.7 c 0,-0.797 0.126,-2.474 1.678,-2.474 0.922,0 1.216,0.293 1.384,0.797 l 0.168,0.125 h 1.845 l 0.168,-0.125 c -0.168,-1.552 -1.384,-2.601 -3.565,-2.601 -2.768,0 -4.027,2.139 -4.027,5.495 0,3.649 1.091,5.494 4.027,5.494 2.181,0 3.733,-1.552 3.733,-3.817 0,-2.139 -1.552,-3.523 -3.398,-3.523 m -0.335,5.495 c -1.217,0 -1.678,-0.713 -1.678,-1.846 0,-1.132 0.461,-1.803 1.678,-1.803 1.09,0 1.552,0.755 1.552,1.803 0,1.133 -0.63,1.846 -1.552,1.846 M 564.142,265.2 c 0,0 0.126,0.252 0.251,0.42 h 3.524 c 0,0 0.083,0.042 0.125,0.084 l 1.762,3.062 h 0.503 l 1.762,-3.062 c 0,0 0.084,-0.042 0.126,-0.084 h 3.523 c 0,0 0.126,-0.252 0.251,-0.42 l -1.761,-3.061 v -0.168 l 1.761,-3.062 c 0,0 -0.125,-0.252 -0.251,-0.419 h -3.523 c 0,0 -0.084,-0.042 -0.126,-0.084 l -1.762,-3.062 h -0.503 l -1.762,3.062 c 0,0 -0.084,0.042 -0.125,0.084 h -3.524 c 0,0 -0.125,0.251 -0.251,0.419 l 1.761,3.062 v 0.168 z m 51.339,31.289 c 0,0 -0.126,-0.251 -0.252,-0.419 h -3.523 c 0,0 -0.084,-0.042 -0.126,-0.084 l -1.761,-3.062 h -0.504 l -1.761,3.062 c 0,0 -0.084,0.042 -0.126,0.084 h -3.523 c 0,0 -0.126,0.252 -0.252,0.419 l 1.762,3.062 v 0.168 l -1.762,3.062 c 0,0 0.126,0.251 0.252,0.419 h 3.523 c 0,0 0.084,0.042 0.126,0.084 l 1.761,3.062 h 0.504 l 1.761,-3.062 c 0,0 0.084,-0.042 0.126,-0.084 h 3.523 c 0,0 0.126,-0.252 0.252,-0.419 l -1.762,-3.062 v -0.168 z M 642.407,265.2 c 0,0 0.125,0.252 0.251,0.42 h 3.523 c 0,0 0.084,0.042 0.126,0.084 l 1.762,3.062 h 0.503 l 1.762,-3.062 c 0,0 0.084,-0.042 0.125,-0.084 h 3.524 c 0,0 0.125,-0.252 0.251,-0.42 l -1.761,-3.061 v -0.168 l 1.761,-3.062 c 0,0 -0.126,-0.252 -0.251,-0.419 h -3.524 c 0,0 -0.083,-0.042 -0.125,-0.084 l -1.762,-3.062 h -0.503 l -1.762,3.062 c 0,0 -0.084,0.042 -0.126,0.084 h -3.523 c 0,0 -0.126,0.251 -0.251,0.419 l 1.761,3.062 v 0.168 z m -122.849,385.282 -3.607,5.41 0.168,0.294 4.236,1.007 0.294,-0.168 -0.839,-6.459 z"
     id="path6" />
  <path
     fill="#000000"
     d="m 577.438,625.61 c -7.088,0 -18.245,11.492 -37.538,11.492 -19.294,0 -30.493,-11.492 -37.581,-11.492 -2.936,0 -6.123,1.594 -9.814,12.96 -5.159,15.896 -8.682,29.569 -8.682,29.569 8.85,-1.509 29.359,12.583 56.077,12.583 26.718,0 47.226,-14.092 56.076,-12.583 0,0 -3.523,-13.673 -8.724,-29.569 -3.691,-11.366 -6.878,-12.96 -9.814,-12.96 m -53.183,39.3 -0.294,0.21 -2.222,-0.546 -0.21,-0.293 -0.462,-3.523 -0.461,-0.378 -6.165,-1.468 -0.546,0.168 -2.013,2.894 -0.293,0.21 -2.223,-0.546 -0.21,-0.293 0.587,-2.475 9.102,-13.002 0.293,-0.168 3.23,0.755 0.167,0.294 2.307,15.686 z m 22.229,1.761 h -3.565 l -0.503,-0.251 -6.92,-11.66 h -0.252 v 11.702 l -0.21,0.251 h -3.02 l -0.251,-0.251 -0.084,-17.28 0.252,-0.252 h 3.565 l 0.503,0.252 6.92,11.659 h 0.252 V 649.14 l 0.21,-0.252 h 3.02 l 0.251,0.252 0.084,17.28 z m 15.142,-3.313 -5.453,1.258 -0.293,-0.168 -3.901,-16.86 0.21,-0.294 5.452,-1.258 c 6.166,-1.426 9.143,1.3 10.402,6.711 1.258,5.494 -0.21,9.185 -6.417,10.611"
     id="path7" />
  <path
     fill="#000000"
     d="m 558.565,648.93 -2.223,0.545 -0.21,0.294 2.517,10.905 0.335,0.167 2.223,-0.503 c 3.439,-0.797 4.278,-2.81 3.397,-6.794 -0.922,-3.943 -2.558,-5.411 -6.039,-4.614 M 751.206,456.541 c 3.145,-34.183 0.923,-60.816 31.918,-73.022 -7.759,-8.43 -23.823,-5.158 -29.15,-3.774 -1.049,0.251 -2.055,-0.378 -2.349,-1.426 -3.02,-12.248 5.117,-21.055 5.117,-21.055 -3.104,-1.217 -16.357,-1.133 -26.507,9.353 -17.532,18.077 -20.426,45.423 -22.44,79.313 -5.955,99.025 -60.312,128.636 -94.286,158.164 -3.774,3.271 -5.662,6.459 -5.662,9.185 0,2.894 1.091,5.075 3.314,8.514 2.936,4.53 13.128,18.371 20.761,26.004 1.174,-5.284 8.85,-11.24 14.848,-15.602 58.383,-42.446 96.047,-84.514 104.436,-175.654 m -26.592,-45.172 c 0.588,-4.781 3.104,-6.543 6.124,-6.165 l 0.21,0.293 -0.378,3.02 -0.251,0.21 c -1.552,-0.168 -2.391,0.503 -2.727,3.271 -0.251,2.265 0.42,3.104 1.426,3.23 1.468,0.168 2.139,-0.755 3.062,-4.236 0.965,-3.482 2.768,-6.082 6.291,-5.621 2.769,0.336 5.075,2.643 4.446,7.927 -0.629,5.075 -3.397,7.047 -6.71,6.627 l -0.21,-0.293 0.335,-3.02 0.294,-0.21 c 1.803,0.21 2.894,-0.671 3.271,-3.691 0.294,-2.349 -0.335,-3.649 -1.845,-3.816 -1.804,-0.21 -2.349,0.712 -3.313,4.194 -0.923,3.523 -2.601,6.081 -6.082,5.662 -2.517,-0.294 -4.53,-2.6 -3.943,-7.382 m 3.943,13.044 0.252,0.252 -0.294,3.02 -0.252,0.251 c -1.552,-0.126 -2.39,0.587 -2.642,3.314 -0.21,2.307 0.461,3.103 1.51,3.229 1.468,0.126 2.139,-0.839 2.936,-4.32 0.881,-3.481 2.6,-6.123 6.165,-5.788 2.769,0.252 5.117,2.517 4.614,7.801 -0.461,5.075 -3.188,7.131 -6.501,6.795 l -0.252,-0.252 0.294,-3.061 0.294,-0.21 c 1.803,0.168 2.894,-0.755 3.145,-3.775 0.252,-2.349 -0.419,-3.649 -1.929,-3.775 -1.804,-0.167 -2.349,0.797 -3.23,4.278 -0.797,3.524 -2.39,6.166 -5.872,5.83 -2.558,-0.251 -4.613,-2.516 -4.194,-7.298 0.462,-4.781 2.936,-6.584 5.956,-6.291 m -6.837,18.497 0.294,-0.21 2.517,0.252 0.209,0.293 -0.881,8.347 0.21,0.251 3.523,0.378 0.294,-0.21 0.839,-7.843 0.293,-0.21 2.517,0.252 0.251,0.293 -0.88,7.844 0.251,0.251 4.027,0.462 0.293,-0.252 0.881,-8.305 0.294,-0.251 2.516,0.293 0.252,0.294 -1.3,11.87 -0.294,0.209 -17.154,-1.845 -0.252,-0.294 z m -3.732,29.233 0.335,-0.461 12.583,-5.033 v -0.252 l -11.492,-1.761 -0.21,-0.294 0.419,-3.02 0.294,-0.209 17.112,2.6 0.21,0.294 -0.545,3.523 -0.336,0.461 -12.582,5.033 v 0.252 l 11.534,1.761 0.209,0.294 -0.461,2.978 -0.294,0.252 -17.07,-2.643 -0.252,-0.251 z m -4.111,20.384 0.336,-0.167 6.417,1.468 0.293,-0.21 1.552,-6.669 -0.209,-0.294 -6.418,-1.468 -0.209,-0.335 0.671,-2.936 0.335,-0.21 16.819,3.859 0.21,0.293 -0.713,2.978 -0.294,0.168 -6.92,-1.552 -0.294,0.168 -1.552,6.669 0.21,0.335 6.921,1.552 0.209,0.336 -0.713,2.978 -0.293,0.167 -16.819,-3.858 -0.21,-0.294 z m -4.655,15.309 c 1.594,-4.823 4.907,-5.83 7.465,-5.536 l 0.126,0.293 -0.923,2.894 -0.335,0.168 c -1.133,0.21 -2.559,0.462 -3.439,3.146 -1.049,3.146 0.797,5.62 4.194,6.753 3.355,1.132 6.333,0.209 7.382,-2.894 0.88,-2.643 -0.168,-4.362 -2.097,-4.992 l -0.336,0.168 -1.342,4.111 -0.336,0.125 -2.39,-0.796 -0.168,-0.294 2.474,-7.508 0.294,-0.126 8.724,2.852 0.126,0.336 -0.713,2.181 -0.294,0.126 -1.3,-0.126 -0.084,0.21 c 0.336,0.671 1.133,2.265 0.252,4.907 -1.594,4.823 -6.25,6.795 -11.325,5.075 -5.075,-1.678 -7.633,-5.956 -5.955,-11.073 m -8.808,22.271 0.335,-0.083 9.647,4.529 c 2.307,1.091 4.152,0.797 5.201,-1.51 1.09,-2.264 0.168,-3.858 -2.139,-4.949 l -9.689,-4.529 -0.126,-0.336 1.3,-2.768 0.336,-0.126 9.689,4.572 c 4.194,1.971 5.368,5.243 3.397,9.437 -1.971,4.236 -5.243,5.41 -9.479,3.439 l -9.647,-4.572 -0.125,-0.335 z m -8.263,14.009 c 2.894,-4.53 7.843,-5.243 12.373,-2.349 4.488,2.853 5.914,7.676 3.062,12.164 -2.894,4.53 -7.843,5.284 -12.373,2.39 -4.53,-2.894 -5.956,-7.675 -3.062,-12.205 m -43.242,70.212 -2.475,1.803 -0.335,-0.084 -8.389,-11.492 h -0.377 l -4.069,2.936 h -0.377 l -1.51,-2.097 0.084,-0.336 11.492,-8.388 h 0.335 l 1.51,2.097 v 0.335 l -4.152,3.02 -0.084,0.336 8.389,11.492 v 0.378 z m 20.006,-16.022 -2.349,1.971 h -0.335 l -4.614,-5.495 h -0.335 l -5.243,4.404 v 0.336 l 4.53,5.452 v 0.378 l -2.349,1.929 h -0.378 l -11.114,-13.212 v -0.377 l 2.39,-1.971 h 0.336 l 4.278,5.117 h 0.336 l 5.242,-4.404 v -0.336 l -4.194,-5.075 v -0.335 l 2.349,-1.972 h 0.377 l 11.073,13.254 z m 11.157,-10.276 c -3.775,3.775 -8.766,3.439 -12.583,-0.336 -3.775,-3.817 -4.152,-8.808 -0.377,-12.582 3.774,-3.817 8.766,-3.482 12.582,0.335 3.775,3.775 4.153,8.766 0.378,12.583 m 9.94,-11.241 -13.421,-10.905 v -0.377 l 5.242,-6.501 c 2.223,-2.768 5.201,-3.607 7.969,-1.384 2.139,1.761 2.475,4.278 1.552,6.165 l 0.21,0.168 5.411,0.168 1.971,1.594 v 0.377 l -0.923,1.174 -0.503,0.21 -8.347,-0.21 -0.503,0.252 -1.594,1.971 v 0.336 l 5.159,4.194 v 0.336 l -1.887,2.39 h -0.336 z"
     id="path8" />
  <path
     fill="#000000"
     d="m 687.579,560.39 c -1.384,-1.091 -2.432,-0.629 -3.397,0.545 l -3.02,3.733 v 0.377 l 3.188,2.559 h 0.335 l 3.062,-3.775 c 0.965,-1.216 1.216,-2.307 -0.168,-3.439 m 9.563,-7.046 c 2.978,1.887 6.081,1.761 7.885,-1.049 1.761,-2.768 0.545,-5.62 -2.433,-7.55 -3.02,-1.887 -6.081,-1.761 -7.885,1.007 -1.762,2.81 -0.587,5.662 2.433,7.592 m -27.891,23.907 c -2.307,2.348 -1.762,5.41 0.755,7.885 2.516,2.516 5.578,3.061 7.885,0.713 2.349,-2.349 1.803,-5.369 -0.713,-7.885 -2.516,-2.516 -5.578,-3.062 -7.927,-0.713 m -37.96,78.893 c 0,-2.936 -2.516,-5.243 -2.516,-5.243 -5.201,-5.243 -11.408,-12.708 -15.77,-18.916 -1.384,-1.971 -2.769,-1.342 -3.691,-0.587 -2.517,2.181 -8.556,6.962 -14.261,8.724 -1.593,0.503 -2.348,1.174 -1.677,3.271 4.236,13.128 6.71,22.901 6.752,23.027 0.504,2.055 1.217,4.068 2.643,5.201 1.384,1.132 4.194,1.845 7.675,0.587 7.676,-2.768 17.113,-9.982 17.113,-9.982 0,0 3.732,-2.853 3.732,-6.124 z M 447.88,647.797 c 7.591,-7.633 17.825,-21.474 20.761,-26.004 2.181,-3.439 3.314,-5.62 3.314,-8.514 0,-2.726 -1.888,-5.914 -5.663,-9.185 -34.015,-29.528 -88.33,-59.139 -94.286,-158.164 -2.055,-33.89 -4.907,-61.236 -22.439,-79.313 -10.192,-10.486 -23.404,-10.57 -26.549,-9.353 0,0 8.179,8.807 5.117,21.055 -0.252,1.048 -1.3,1.677 -2.307,1.426 -5.369,-1.384 -21.391,-4.656 -29.15,3.774 30.953,12.206 28.731,38.839 31.876,73.022 8.431,91.14 46.095,133.208 104.478,175.654 5.956,4.362 13.632,10.318 14.848,15.602 m -106.366,-188.865 -0.209,-1.762 0.209,-0.545 6.166,-6.333 v -0.252 l -1.971,-1.552 -5.075,0.587 -0.252,-0.251 -0.336,-3.02 0.21,-0.294 17.154,-1.929 0.294,0.209 0.336,3.062 -0.21,0.252 -7.34,0.839 v 0.251 l 8.179,6.501 0.335,0.462 0.126,1.258 -0.21,0.294 -2.516,0.293 -5.62,-4.488 h -0.252 l -6.208,6.376 -2.516,0.293 z m 3.062,20.09 -0.587,-3.481 0.168,-0.546 10.485,-8.64 v -0.251 l -11.576,1.845 -0.293,-0.21 -0.504,-3.019 0.21,-0.252 17.07,-2.768 0.294,0.209 0.545,3.524 -0.167,0.545 -10.444,8.64 v 0.252 l 11.576,-1.888 0.294,0.21 0.503,3.02 -0.21,0.293 -17.07,2.727 z m 2.894,14.764 c -1.216,-5.243 1.678,-9.312 6.921,-10.528 5.2,-1.258 9.646,1.049 10.905,6.291 1.216,5.201 -1.678,9.27 -6.921,10.528 -5.201,1.216 -9.647,-1.091 -10.905,-6.291 m 9.647,30.576 -1.091,-3.104 0.168,-0.336 10.36,-7.214 -0.084,-0.252 -12.583,1.007 -0.335,-0.168 -1.091,-3.103 0.126,-0.336 12.625,-8.514 2.39,-0.881 0.336,0.168 0.839,2.39 -0.168,0.336 -10.15,6.291 0.084,0.252 12.121,-0.797 0.336,0.168 1.09,3.104 -0.168,0.293 -9.898,7.047 0.084,0.251 11.87,-1.552 0.335,0.168 0.839,2.391 -0.126,0.335 -2.391,0.839 -15.183,1.342 z m 12.163,19.167 -2.265,1.174 -0.335,-0.125 -5.159,-10.234 0.126,-0.336 15.434,-7.759 0.336,0.126 1.384,2.726 -0.126,0.336 -12.708,6.375 -0.126,0.377 3.565,7.004 z m 9.437,15.141 -2.139,1.342 -0.377,-0.084 -6.418,-10.024 v -0.377 l 14.596,-9.311 0.378,0.084 6.417,10.066 -0.084,0.335 -2.139,1.384 -0.336,-0.084 -4.529,-7.088 h -0.336 l -3.02,1.846 v 0.377 l 4.194,6.627 -0.083,0.336 -2.139,1.384 -0.336,-0.084 -4.278,-6.627 -0.336,-0.084 -3.439,2.181 v 0.377 l 4.446,7.047 v 0.377 z m 5.285,11.66 -3.481,-4.362 v -0.377 l 13.505,-10.779 h 0.378 l 3.481,4.403 c 3.984,4.95 2.81,8.808 -1.552,12.29 -4.362,3.523 -8.347,3.774 -12.331,-1.175 m 20.174,22.23 -1.594,-1.636 v -0.378 l 0.713,-1.048 -0.168,-0.21 c -0.713,0 -2.516,0 -4.445,-2.013 -3.566,-3.607 -3.188,-8.64 0.629,-12.373 3.816,-3.775 8.85,-4.069 12.582,-0.252 3.565,3.649 2.978,7.046 1.552,9.186 h -0.377 l -2.139,-2.181 v -0.378 c 0.377,-1.09 0.755,-2.474 -1.217,-4.488 -2.306,-2.39 -5.368,-1.845 -7.885,0.629 -2.558,2.517 -3.103,5.537 -0.797,7.886 1.93,2.013 3.943,1.845 5.369,0.419 v -0.336 l -3.02,-3.103 v -0.336 l 1.804,-1.803 h 0.377 l 5.536,5.62 v 0.377 l -6.543,6.418 z m 24.368,1.426 h -0.377 l -6.375,-5.453 h -0.336 l -2.349,2.726 v 0.336 l 6.04,5.159 v 0.335 l -1.636,1.93 h -0.377 l -5.956,-5.117 h -0.377 l -2.643,3.145 v 0.336 l 6.376,5.452 v 0.378 l -1.636,1.929 h -0.336 l -9.059,-7.759 v -0.378 l 11.24,-13.086 h 0.336 l 9.059,7.76 v 0.377 z"
     id="path9" />
  <path
     fill="#000000"
     d="m 395.661,561.313 -1.426,-1.804 H 393.9 l -8.766,6.962 v 0.378 l 1.426,1.762 c 2.223,2.768 4.404,2.642 7.549,0.125 3.188,-2.558 3.775,-4.655 1.552,-7.423 m -33.344,-71.092 c -0.755,-3.188 -3.649,-4.321 -7.13,-3.524 -3.439,0.839 -5.495,3.146 -4.74,6.376 0.755,3.229 3.649,4.362 7.131,3.523 3.439,-0.839 5.494,-3.146 4.739,-6.375 m 114.67,181.442 c 1.427,-1.133 2.14,-3.146 2.643,-5.201 0,-0.126 2.474,-9.899 6.753,-23.027 0.671,-2.139 -0.084,-2.768 -1.678,-3.271 -5.662,-1.762 -11.744,-6.543 -14.261,-8.724 -0.88,-0.797 -2.306,-1.384 -3.69,0.587 -4.404,6.208 -10.57,13.673 -15.771,18.916 0,0 -2.516,2.265 -2.516,5.243 0,3.229 3.733,6.123 3.733,6.123 0,0 9.437,7.215 17.112,9.983 3.481,1.258 6.249,0.545 7.675,-0.588 z m 29.948,-473.009 -4.265,4.222 v 3.046 l 0.304,0.305 h 1.524 l 2.437,-2.437 h 0.305 v 11.838 l -0.305,0.261 h -5.179 l -0.305,0.304 v 3.047 l 0.305,0.305 h 14.232 l 0.304,-0.305 v -3.047 l -0.304,-0.304 h -4.222 l -0.305,-0.261 v -16.974 l -0.304,-0.305 h -3.613 z m 14.101,14.536 c 0,3.265 2.394,6.659 7.573,6.659 5.179,0 7.573,-3.394 7.573,-6.659 0,-2.785 -1.523,-4.221 -2.742,-4.874 v -0.305 c 0.914,-0.565 2.133,-1.784 2.133,-4.221 0,-3.047 -2.438,-5.745 -6.964,-5.745 -4.526,0 -6.964,2.698 -6.964,5.745 0,2.437 1.219,3.656 2.133,4.221 v 0.305 c -1.219,0.653 -2.742,2.089 -2.742,4.874 m 7.573,-11.533 c 2.133,0 2.742,1.567 2.742,2.437 0,1.524 -0.914,2.699 -2.742,2.699 -1.828,0 -2.742,-1.175 -2.742,-2.699 0,-0.87 0.609,-2.437 2.742,-2.437 m 0,8.487 c 2.176,0 3.351,1.219 3.351,3.046 0,1.524 -0.914,3.003 -3.351,3.003 -2.437,0 -3.308,-1.479 -3.308,-3.003 0,-1.827 1.132,-3.046 3.308,-3.046 m 14.537,-5.44 0.304,0.304 h 3.656 l 0.305,-0.304 c 0,-1.828 0.609,-3.047 3.003,-3.047 1.828,0 2.742,1.219 2.742,3.047 0,1.828 -0.609,3.046 -4.222,6.049 l -5.484,4.57 -0.304,0.566 v 3.351 l 0.304,0.305 h 14.232 l 0.305,-0.305 v -3.047 l -0.305,-0.304 h -9.053 v -0.305 l 3.613,-3.003 c 3.656,-3.003 5.136,-4.874 5.136,-8.182 0,-3.308 -2.438,-6.354 -6.964,-6.354 -5.44,0 -7.268,3.351 -7.268,6.659 m 29.464,-6.05 -9.097,10.576 -0.304,0.609 v 3.351 l 0.304,0.305 h 9.401 l 0.305,0.305 v 5.44 l 0.305,0.305 h 3.655 l 0.305,-0.305 v -5.223 l 0.305,-0.304 h 2.306 l 0.305,-0.305 v -3.264 l -0.305,-0.305 h -2.306 l -0.305,-0.304 v -10.924 l -0.305,-0.305 h -3.96 l -0.609,0.305 z m 0.609,10.881 -0.305,0.304 h -5.135 v -0.304 l 5.135,-6.05 h 0.305 z"
     id="path10"
     sodipodi:nodetypes="ccccccccccccccccccccsccccccccccccccccccccccccccccssccsssccccsssccssscccccssccccccccccccsscccccccccccccccccccccccccccccccc" />
</svg>
